<?xml version="1.0" encoding="UTF-8" standalone="no"?>
<!-- Created with Inkscape (http://www.inkscape.org/) -->

<svg
   version="1.1"
   id="svg1"
   width="500"
   height="500"
   viewBox="0 0 500 500"
   sodipodi:docname="favicon.svg"
   inkscape:version="1.4.2 (f4327f4, 2025-05-13)"
   xmlns:inkscape="http://www.inkscape.org/namespaces/inkscape"
   xmlns:sodipodi="http://sodipodi.sourceforge.net/DTD/sodipodi-0.dtd"
   xmlns="http://www.w3.org/2000/svg"
   xmlns:svg="http://www.w3.org/2000/svg">
  <defs
     id="defs1" />
  <sodipodi:namedview
     id="namedview1"
     pagecolor="#505050"
     bordercolor="#ffffff"
     borderopacity="1"
     inkscape:showpageshadow="0"
     inkscape:pageopacity="0"
     inkscape:pagecheckerboard="1"
     inkscape:deskcolor="#505050"
     inkscape:zoom="1.546"
     inkscape:cx="138.09832"
     inkscape:cy="223.47995"
     inkscape:window-width="1920"
     inkscape:window-height="991"
     inkscape:window-x="-9"
     inkscape:window-y="-9"
     inkscape:window-maximized="1"
     inkscape:current-layer="g1" />
  <g
     inkscape:groupmode="layer"
     inkscape:label="Image"
     id="g1">
    <g
       id="g29"
       style="display:inline">
      <path
         style="fill:#ccccfb"
         d="m 234,447.32117 -3.5,-0.35875 -10.08802,-1.51749 -10.08802,-1.5175 -11.27211,-2.95736 -11.27211,-2.95736 -9.13987,-3.63953 -9.13987,-3.63954 -7.93772,-3.97236 -7.93771,-3.97236 -8.02318,-4.97614 -8.02318,-4.97613 -8.5391,-6.65323 -8.53911,-6.65323 -8.36735,-8.01509 -8.36735,-8.0151 -7.262939,-9.0296 -7.262939,-9.0296 -5.792475,-8.9704 -5.792476,-8.9704 -5.795874,-12 -5.795875,-12 -3.546614,-10.8539 -3.546614,-10.85391 -2.707873,-12.64609 -2.707872,-12.6461 -0.02687,-26 -0.02687,-26 2.319558,-11.45572 2.319558,-11.45571 4.307176,-13.04429 4.307176,-13.04428 3.949337,-8.5 3.949336,-8.5 5.462434,-9.04944 5.462435,-9.04944 7.457915,-9.87901 7.457916,-9.87902 9.08586,-9.14513 9.08586,-9.14513 7.16962,-5.720527 7.16962,-5.720525 8.2481,-5.548739 8.2481,-5.548739 11,-5.541703 11,-5.541703 8.5,-3.267888 8.5,-3.267888 11.5774,-3.096098 11.57739,-3.096098 9.92261,-1.495566 9.9226,-1.495566 h 18.5 18.5 l 10,1.50621 10,1.506209 11.13465,2.970518 11.13465,2.970517 7.86535,2.922884 7.86535,2.922883 6.86805,3.105637 6.86805,3.105637 9.25101,5.444505 9.251,5.444506 10.05107,7.480256 10.05107,7.480256 10.90181,10.814092 10.9018,10.8141 6.2456,8.27968 6.2456,8.27967 4.82693,7.78261 4.82693,7.78261 3.97236,7.93771 3.97236,7.93772 3.64895,9.1634 3.64895,9.1634 2.9518,11.3366 2.95181,11.3366 1.576,9.5 1.576,9.5 0.5912,15 0.5912,15 -1.71768,13.5 -1.71769,13.5 -3.39075,13.26027 -3.39075,13.26027 -5.16559,12.56341 -5.1656,12.5634 -6.46808,10.81968 -6.46808,10.81967 -6.57199,8.85665 -6.57199,8.85665 -12.07068,12.04852 -12.07067,12.04851 -8.85089,6.57224 -8.85088,6.57224 -10.26501,6.1913 -10.265,6.1913 -13.60048,5.5061 -13.60047,5.5061 -13.38663,3.37184 -13.38662,3.37185 -13.39701,1.55879 -13.39701,1.55878 -10.5,-0.15882 -10.5,-0.15882 z m 5.11842,-49.07117 0.11842,-23.75 -0.0659,-0.59239 -0.0659,-0.59239 9.96771,-9.83737 9.9677,-9.83737 0.9642,0.9642 0.9642,0.9642 0.67678,33.21556 L 262.32244,422 h 1.72877 1.72877 l 5.86341,-4.31639 5.8634,-4.3164 4.36269,-4.9336 4.36269,-4.93361 3.74726,-5.5 3.74727,-5.5 4.55034,-8.5 4.55035,-8.5 4.97979,-13.5 4.97979,-13.5 1.81677,-7.20641 1.81678,-7.20641 -0.65662,-0.65661 -0.65661,-0.65662 -10.30365,-0.22735 -10.30364,-0.22736 -7,-0.17493 -7,-0.17494 -1.28064,-0.81264 -1.28065,-0.81264 3.56475,-5.91985 3.56474,-5.91985 1.0885,-3.63307 1.0885,-3.63308 4.51697,-0.61912 L 296.27914,310 h 5.23543 5.23543 l 3.125,0.625 3.125,0.625 0.005,1.125 0.005,1.125 4.92794,7.52716 4.92793,7.52716 6.56699,6.30595 6.567,6.30596 v 2.80502 2.80502 l -2.54325,8.77623 -2.54325,8.77622 -5.50707,13.58564 -5.50707,13.58564 -5.4292,9 -5.4292,9 -1.72757,2.70958 -1.72757,2.70957 0.68995,0.68996 0.68995,0.68995 9.26714,-3.78557 9.26714,-3.78557 10.53601,-5.94595 10.53602,-5.94594 8.96398,-6.66068 8.96399,-6.66068 10.90776,-10.80107 10.90776,-10.80107 10.61368,0.6716 10.61368,0.6716 1.34043,-1.61513 1.34044,-1.61513 -0.52018,-1.35556 -0.52017,-1.35556 -7.07785,-2.90717 -7.07784,-2.90718 0.61365,-2 0.61365,-2 4.0061,-6.78306 4.0061,-6.78306 -0.59155,-0.59155 -0.59155,-0.59155 -20.68553,-0.66021 -20.68553,-0.6602 -4.14487,-4.57815 -4.14486,-4.57814 -2.46166,-4.69815 -2.46166,-4.69814 1.94113,-1.4389 L 352.38226,310 h 31.20029 31.20029 l 1.66006,-4.14889 1.66006,-4.14889 2.39722,-9.90025 2.39722,-9.90025 1.17935,-10.14447 1.17936,-10.14447 -0.50721,-18.05639 -0.5072,-18.05639 -2.17721,-10.23122 -2.1772,-10.23122 -2.73136,-8.26878 -2.73136,-8.26878 -33.46228,-0.55226 -33.46229,-0.55226 -2.03691,-0.75865 -2.03692,-0.75865 -1.67046,-4.70329 -1.67046,-4.7033 -3.18394,-4.80687 -3.18394,-4.80687 -6.60868,-5.28979 -6.60869,-5.28979 -2.51008,-0.59797 -2.51007,-0.59797 -1.78108,-3.01513 -1.78109,-3.01514 -4.03313,-10.77603 L 303.85141,127.5 298.48743,117.1978 293.12345,106.8956 287.31172,98.793644 281.5,90.691688 275.69438,85.842763 269.88876,80.993837 266.99404,79.496918 264.09932,78 H 263.04966 262 l -0.10346,18.25 -0.10346,18.25 -0.64654,16.5 -0.64654,16.5 0.81254,0.59767 0.81253,0.59766 -8.50017,0.65338 -8.50018,0.65337 -2.45079,0.93179 -2.4508,0.93179 -0.61156,-3.05783 L 239,145.75 V 111.875 78 l -1.75,0.0051 -1.75,0.0051 -3.75967,2.276043 -3.75967,2.276044 -6.59188,6.468833 -6.59189,6.468833 -5.39961,8.113167 -5.39961,8.11316 -4.86507,10.39242 -4.86508,10.39243 -4.54068,12.99441 -4.54067,12.99441 -1.58692,3 -1.58693,3 0.007,-1.5 0.007,-1.5 1.88435,-6.00894 1.88434,-6.00894 0.35275,-18.20108 0.35276,-18.20108 -1.71306,-1.71733 -1.71306,-1.71732 -2.63058,1.19857 -2.63057,1.19857 2.1656,-2.77123 L 182.14394,106.5 188.07197,96.298202 194,86.096405 V 85.548202 85 h -1.55661 -1.5566 l -8.60218,3.560881 -8.60217,3.56088 -9.86169,5.627781 -9.86168,5.627778 -10.22954,7.69307 -10.22953,7.69306 -9.75,10.06415 -9.75,10.06414 0.009,1.80413 0.009,1.80413 4.92805,5.75706 4.92804,5.75705 2.1304,3.24295 2.13041,3.24294 -2.81733,-3.41744 -2.81734,-3.41745 -5.90527,-7.08255 -5.90527,-7.08256 -1.85469,-0.72146 -1.8547,-0.72146 -2.39289,0.90978 -2.3929,0.90977 -0.55594,0.89952 -0.55593,0.89952 -1.136659,15.41217 -1.136659,15.41216 0.06122,6.39911 0.06122,6.39912 2.269248,2.60088 2.26925,2.60089 -1.43502,-1.25 L 100.6,188 h -7.217292 -7.217292 l -1.519593,4.25 -1.519593,4.25 -1.520862,5 -1.520862,5 -1.496315,6.61397 -1.496316,6.61398 -1.176699,11.23812 -1.176698,11.23812 0.534117,15.1479 0.534117,15.14791 1.629358,9 1.629358,9 2.566506,8.5 2.566505,8.5 0.905897,1.10863 0.905897,1.10863 10.817712,0.51274 10.817715,0.51273 4.63312,3.53655 4.63313,3.53654 3.79404,1.20354 3.79405,1.20354 2.25,1.4116 2.25,1.41161 v 2.40885 2.40885 l -3.17148,2.2583 -3.17149,2.25829 -9.16236,-0.26668 -9.16236,-0.26669 -3.66616,0.68778 L 97,333.22258 v 1.20744 1.20743 l 3.75,6.19016 3.75,6.19017 4.96465,6.74111 4.96465,6.74111 10.53535,10.84673 10.53535,10.84672 9,6.80076 9,6.80075 9.73161,5.57148 9.73161,5.57147 8.26839,3.40291 8.26839,3.40292 2.25,0.69552 2.25,0.69552 v -0.98753 -0.98752 l -5.93052,-9.82986 -5.93053,-9.82987 -0.62708,-2.54758 -0.62708,-2.54759 6.17547,-4.95241 6.17546,-4.95242 1.30222,-1.85841 1.30223,-1.85841 1.06482,0.6581 1.06483,0.6581 4.13504,7.20031 4.13504,7.20031 4.13005,6.48019 4.13005,6.4802 6,6.11271 6,6.11271 4,2.59826 4,2.59826 2.25,0.0588 L 239,422 Z m -68.50647,-32.49035 -1.44681,-2.25965 -2.52816,-8.5 -2.52816,-8.5 -1.64594,-6.49755 -1.64593,-6.49755 -1.15847,-0.73714 -1.15848,-0.73713 -6.6452,-0.0153 -6.64519,-0.0153 -2.73986,-5.25 -2.73985,-5.25 -3.25021,-5.09004 -3.2502,-5.09004 5.65393,-0.20403 5.65392,-0.20403 1.29849,4.3977 1.29849,4.3977 3.00564,3.64637 3.00565,3.64637 h 2.50412 2.50412 l 2.92307,-2.92308 2.92308,-2.9231 v -6.00064 -6.00063 l -1.17614,-5.09532 -1.17614,-5.09531 1.70638,-3.57832 1.70638,-3.57832 1.36524,1.13305 1.36524,1.13304 3.79727,8.43128 3.79726,8.43127 1.434,0.55028 1.43401,0.55028 1.12325,-0.89394 1.12325,-0.89393 28.45473,-0.19084 28.45474,-0.19083 0.79526,-0.4915 0.79527,-0.4915 v -48.8592 -48.8592 l 0.57751,-1.50496 0.57751,-1.50496 5.69547,3.33803 5.69547,3.33802 5.08425,3.42145 5.08424,3.42144 0.0464,43.78156 0.0463,43.78157 1.54997,1.54997 1.54998,1.54998 -5.20355,6.01516 -5.20355,6.01515 -6.45772,4.74765 -6.45773,4.74764 -1.04227,-0.68063 L 239.5,332.5 l -14,-0.66616 -14,-0.66616 -1,-0.0107 -1,-0.0107 -12.17103,0.67682 -12.17103,0.67682 -0.71872,0.72308 -0.71872,0.72308 2.34339,9.08955 2.34339,9.08954 -8.17426,7.94703 -8.17427,7.94702 z m -65.20744,-57.91416 -0.71353,-1.15451 1.15451,0.71353 L 107,308.11803 V 308.55902 309 h -0.44098 -0.44099 z M 101,302.5 V 302 h 0.5 0.5 v 0.5 0.5 h -0.5 -0.5 z m -3,-4 V 298 h 0.5 0.5 v 0.5 0.5 H 98.5 98 Z m -2,-3 V 295 h 0.5 0.5 v 0.5 0.5 H 96.5 96 Z m -1,-2 V 293 h 0.5 0.5 v 0.5 0.5 H 95.5 95 Z m 30,0 V 293 h 0.5 0.5 v 0.5 0.5 h -0.5 -0.5 z m -31,-2 V 291 h 0.5 0.5 v 0.5 0.5 H 94.5 94 Z m -1,-2 V 289 h 0.5 0.5 v 0.5 0.5 H 93.5 93 Z m -1,-2 V 287 h 0.5 0.5 v 0.5 0.5 H 92.5 92 Z m 31,-1 V 286 h 0.5 0.5 v 0.5 0.5 h -0.5 -0.5 z m -32,-3 V 283 h 0.5 0.5 v 0.5 0.5 H 91.5 91 Z m 31,-1 V 282 h 0.5 0.5 v 0.5 0.5 h -0.5 -0.5 z m 35,-1 V 280 h 0.39301 0.39301 l 0.57561,1.5 0.5756,1.5 H 157.96862 157 Z m -67,-1 V 280 h 0.5 0.5 v 0.5 0.5 H 90.5 90 Z m 35,-2 V 278 h 0.5 0.5 v 0.5 0.5 h -0.5 -0.5 z m -3.80505,-3 0.037,-3 0.46099,1.76903 0.46099,1.76903 -0.49804,1.23097 -0.49805,1.23097 z M 150,272.5 V 272 h 0.5 0.5 v 0.5 0.5 h -0.5 -0.5 z m -7.59549,-1.65451 -0.71353,-1.15451 1.15451,0.71353 L 144,271.11803 V 271.55902 272 h -0.44098 -0.44099 z M 121.19495,263.5 l 0.037,-3 0.46099,1.76903 0.46099,1.76903 -0.49804,1.23097 -0.49805,1.23097 z m -31.116003,-0.0833 0.07895,-1.91667 0.525219,1.3125 0.525219,1.3125 -0.604166,0.60417 L 90,265.33333 Z M 138,264.5 V 264 h 0.5 0.5 v 0.5 0.5 h -0.5 -0.5 z m 4,-4 V 260 h 0.5 0.5 v 0.5 0.5 H 142.5 142 Z M 91,258 v -1.33333 l 0.666667,0.66666 L 92.333333,258 91.666667,258.66667 91,259.33333 Z m 44,0.5 V 258 h 0.5 0.5 v 0.5 0.5 h -0.5 -0.5 z m 6,0 V 258 h 0.5 0.5 v 0.5 0.5 H 141.5 141 Z M 122,256 v -1.33333 l 0.66667,0.66666 0.66666,0.66667 -0.66666,0.66667 L 122,257.33333 Z M 92,254.5 V 254 h 0.5 0.5 v 0.5 0.5 H 92.5 92 Z m 33,-0.5 v -1.33333 l 0.66667,0.66666 0.66666,0.66667 -0.66666,0.66667 L 125,255.33333 Z m 8,-0.5 V 253 h 0.5 0.5 v 0.5 0.5 h -0.5 -0.5 z m 6,0 V 253 h 0.5 0.5 v 0.5 0.5 h -0.5 -0.5 z m 38,-1 V 252 h 0.5 0.5 v 0.5 0.5 H 177.5 177 Z M 93,251 v -1.33333 l 0.666667,0.66666 L 94.333333,251 93.666667,251.66667 93,252.33333 Z m 30,0.5 V 251 h 0.5 0.5 v 0.5 0.5 h -0.5 -0.5 z m 3,-1 V 250 h 0.5 0.5 v 0.5 0.5 h -0.5 -0.5 z m 6,0 V 250 h 0.5 0.5 v 0.5 0.5 h -0.5 -0.5 z m 6,0 V 250 h 0.5 0.5 v 0.5 0.5 h -0.5 -0.5 z m -44,-2 V 248 h 0.5 0.5 v 0.5 0.5 H 94.5 94 Z m 30,0 V 248 h 0.5 0.5 v 0.5 0.5 h -0.5 -0.5 z m 6,-1.5 -1.5,-0.96937 1.19098,-0.0153 1.19099,-0.0153 0.61803,1 0.61803,1 -0.30901,-0.0153 -0.30902,-0.0153 z m 7,-0.5 V 246 h 0.5 0.5 v 0.5 0.5 h -0.5 -0.5 z m -42,-1 V 245 h 0.5 0.5 v 0.5 0.5 H 95.5 95 Z m 30,0 V 245 h 0.5 0.5 v 0.5 0.5 H 125.5 125 Z M 96,243 v -1.33333 l 0.666667,0.66666 L 97.333333,243 96.666667,243.66667 96,244.33333 Z m 30,-0.5 V 242 h 0.5 0.5 v 0.5 0.5 h -0.5 -0.5 z m -29,-2 V 240 h 0.5 0.5 v 0.5 0.5 H 97.5 97 Z m 30,0 V 240 h 0.5 0.5 v 0.5 0.5 h -0.5 -0.5 z m -29,-2 V 238 h 0.5 0.5 v 0.5 0.5 H 98.5 98 Z m 30,0 V 238 h 0.5 0.5 v 0.5 0.5 h -0.5 -0.5 z m 7,-1 V 237 h 0.5 0.5 v 0.5 0.5 h -0.5 -0.5 z m 37.70609,-0.21916 -0.786,-1.21915 -0.57272,-9.78085 -0.57271,-9.78084 2.31094,-9.5 2.31095,-9.5 0.64767,4.46612 0.64767,4.46612 -0.89414,9.03388 -0.89413,9.03388 -0.70577,7 -0.70577,7 z M 99,236.5 V 236 h 0.5 0.5 v 0.5 0.5 H 99.5 99 Z m 30,0 V 236 h 0.5 0.5 v 0.5 0.5 h -0.5 -0.5 z m -29,-2 V 234 h 0.5 0.5 v 0.5 0.5 h -0.5 -0.5 z m 30,0 V 234 h 0.5 0.5 v 0.5 0.5 h -0.5 -0.5 z m -29,-2 V 232 h 0.5 0.5 v 0.5 0.5 h -0.5 -0.5 z m 30,0.24489 v -0.5 l 1.41097,-1.171 1.41097,-1.17101 0.74936,1.29856 0.74935,1.29856 -0.81832,-0.74132 -0.81831,-0.74133 -1.34201,1.11377 L 131,233.24489 Z M 102.5,230 l 0.61803,-1 h 0.5 0.5 l -0.61803,1 -0.61803,1 h -0.5 -0.5 z m 2,-3 0.61803,-1 h 0.5 0.5 l -0.61803,1 -0.61803,1 h -0.5 -0.5 z m 2,-3 0.61803,-1 h 0.5 0.5 l -0.61803,1 -0.61803,1 h -0.5 -0.5 z m 3,-4 1.80998,-2 h 0.5 0.5 l -1.80998,2 -1.80998,2 h -0.5 -0.5 z m 5.07258,-6.09443 2.92742,-3.59444 0.44872,0.37649 0.44872,0.37648 -3.37614,3.21795 -3.37614,3.21795 z m -0.16807,-7.06008 -0.71353,-1.15451 1.15451,0.71353 L 116,207.11803 V 207.55902 208 h -0.44098 -0.44099 z M 111.87244,203.25 110.5,201.5 l 1.75,1.37244 1.75,1.37245 V 204.62244 205 h -0.37756 -0.37755 z m -3,-4 -1.37244,-1.75 1.75,1.37244 1.75,1.37245 V 200.62244 201 h -0.37756 -0.37755 z m 78.89547,-0.97473 3.26791,-0.40466 2.73209,0.41486 2.73209,0.41487 -6,-0.0102 -6,-0.0102 z M 183,197.5 V 197 h 0.5 0.5 v 0.5 0.5 h -0.5 -0.5 z m -7,-1 V 196 h 0.5 0.5 v 0.5 0.5 h -0.5 -0.5 z m -70.59549,-1.65451 -0.71353,-1.15451 1.15451,0.71353 L 107,195.11803 V 195.55902 196 h -0.44098 -0.44099 z m 76.67444,-1.42882 0.0789,-1.91667 0.52522,1.3125 0.52522,1.3125 -0.60416,0.60417 L 182,195.33333 Z M 177,193.5 V 193 h 0.5 0.5 v 0.5 0.5 h -0.5 -0.5 z m -73.59549,-1.65451 -0.71353,-1.15451 1.15451,0.71353 L 105,192.11803 V 192.55902 193 h -0.44098 -0.44099 z m 150.16864,-5.40362 -5.92185,-5.29644 -9.57565,-4.98843 -9.57565,-4.98844 -5.88561,-1.69466 -5.88561,-1.69466 -5.68679,0.41134 -5.6868,0.41135 -6.92759,4.3258 -6.9276,4.32581 -3.75,4.44154 -3.75,4.44154 v -0.69076 -0.69075 l -1.75,1.26046 -1.75,1.26046 8.52666,-8.38802 8.52665,-8.38801 4.89851,-3.43793 4.89851,-3.43793 -0.73855,1.19499 -0.73854,1.195 1.31338,0.47256 1.31338,0.47256 15,-0.78989 15,-0.7899 8,4.50574 8,4.50573 4.82622,3.27978 4.82623,3.27978 2.92377,2.46019 2.92378,2.4602 v 0.55274 0.55274 l -4.03696,0.64554 -4.03695,0.64554 -1.21555,1.73544 -1.21555,1.73544 z m -115.11343,-9.58939 -3.66864,-7.35248 -2.64554,-2.96181 -2.64554,-2.9618 1.71633,1.3063 1.71633,1.30631 5.39518,-0.3445 5.39518,-0.3445 -0.13439,8.68955 -0.13439,8.68954 -0.66294,0.66294 -0.66294,0.66294 z M 186.33333,163.33333 187,162.66667 187.66667,163.33333 188.33333,164 H 187 185.66667 Z m -57.92882,-1.48784 -0.71353,-1.15451 1.15451,0.71353 L 130,162.11803 V 162.55902 163 h -0.44098 -0.44099 z M 190,162.5 V 162 h 0.5 0.5 v 0.5 0.5 h -0.5 -0.5 z m 3.33333,-1.16667 0.66667,-0.66666 0.66667,0.66666 L 195.33333,162 H 194 192.66667 Z M 198,160.5 V 160 h 0.5 0.5 v 0.5 0.5 h -0.5 -0.5 z m 8.40451,-0.65451 -0.71353,-1.15451 1.15451,0.71353 L 208,160.11803 V 160.55902 161 h -0.44098 -0.44099 z M 203,159.5 V 159 h 0.5 0.5 v 0.5 0.5 h -0.5 -0.5 z m 24,-1 V 158 h 0.5 0.5 v 0.5 0.5 h -0.5 -0.5 z m 6,-4 V 154 h 0.5 0.5 v 0.5 0.5 H 233.5 233 Z M 144,153 v -1.33333 l 0.66667,0.66666 0.66666,0.66667 -0.66666,0.66667 L 144,154.33333 Z m 92,0.5 V 153 h 0.5 0.5 v 0.5 0.5 h -0.5 -0.5 z m -90.5,-3.5 0.61803,-1 h 0.5 0.5 l -0.61803,1 -0.61803,1 h -0.5 -0.5 z m 4.5,-5.5 2.34863,-2.5 h 0.5 0.5 L 151,144.5 148.65137,147 h -0.5 -0.5 z m 4.5,-5.5 1.80998,-2 h 0.5 0.5 l -1.80998,2 -1.80998,2 h -0.5 -0.5 z m 5,-6 1.80998,-2 h 0.5 0.5 l -1.80998,2 -1.80998,2 h -0.5 -0.5 z m 4.5,-5.5 2.34863,-2.5 h 0.5 0.5 L 165,127.5 162.65137,130 h -0.5 -0.5 z m 5.5,-6.5 1.80998,-2 h 0.5 0.5 l -1.80998,2 -1.80998,2 h -0.5 -0.5 z m 4,-5 1.80998,-2 h 0.5 0.5 l -1.80998,2 -1.80998,2 h -0.5 -0.5 z m 228.13364,48.51234 0.57087,-1.48766 -2.56126,-4.37045 -2.56125,-4.37045 -6.19214,-8.39189 -6.19213,-8.39189 -9.09887,-9.35836 -9.09886,-9.35836 -8.39038,-6.58426 -8.39038,-6.58426 L 339.44917,99.446605 329.1791,93.278451 318.12039,88.639225 307.06169,84 H 306.53084 306 v 0.849739 0.849739 l 5.67492,9.400261 5.67492,9.400261 3.89383,8.29406 3.89383,8.29405 3.86242,10.41167 3.86242,10.41167 2.59951,9.79427 2.5995,9.79428 0.94789,2.25 0.94788,2.25 h 30.55283 30.55282 z"
         id="path39" />
      <path
         style="fill:#abd8df"
         d="m 186.39884,383.90426 5.89883,-5.40426 1.60117,-0.80785 1.60116,-0.80784 -4.5,4.11333 -4.5,4.11334 -3,2.09878 -3,2.09877 z m 62.54517,-21.12718 6.44401,-6.72239 0.47266,0.47265 0.47265,0.47266 -0.4415,0.25 -0.4415,0.25 -6.47516,5.99974 -6.47517,5.99973 z m -73.85443,2.60374 0.41042,-1.11917 5.97448,-5.38083 5.97449,-5.38082 -1.97449,2.54325 -1.97448,2.54326 -4.41042,3.95674 -4.41043,3.95675 z M 243,332.5 V 332 h 0.5 0.5 v 0.5 0.5 h -0.5 -0.5 z m -116.75,-2.50923 2.75,-2.15758 v -2.29415 -2.29415 l -1.26214,-1.04749 -1.26215,-1.04748 -5.65548,-2.11599 -5.65548,-2.11599 -4.33237,-4.01068 -4.33238,-4.01069 5.23196,3.46212 5.23196,3.46212 4.76804,1.75906 4.76804,1.75907 1.75,1.48552 1.75,1.48552 V 325 v 2.69002 l -1.75,1.50289 -1.75,1.50288 -1.5,0.72628 -1.5,0.72628 z M 144,331.5 V 331 h 0.5 0.5 v 0.5 0.5 h -0.5 -0.5 z m 64,0 V 331 h 0.5 0.5 v 0.5 0.5 h -0.5 -0.5 z m 4,0 V 331 h 0.5 0.5 v 0.5 0.5 h -0.5 -0.5 z m -2,-1 V 330 h 0.5 0.5 v 0.5 0.5 h -0.5 -0.5 z m 36,0 V 330 h 0.5 0.5 v 0.5 0.5 h -0.5 -0.5 z m -106.29014,-6.19136 -3.50619,-5.80864 -2.12644,-3.82422 -2.12644,-3.82423 1.01857,0.62952 1.01858,0.62951 5.05652,8.56088 5.05653,8.56088 -0.44247,0.44247 -0.44247,0.44247 z m 112.12749,2.06987 4.33735,-3.87851 3.66265,-4.04399 3.66265,-4.04399 -1.46726,2.04399 -1.46727,2.04399 -3.53273,3.83376 -3.53274,3.83375 -3,2.04475 -3,2.04475 z M 322.87244,328.25 321.5,326.5 l 1.75,1.37244 1.75,1.37245 V 329.62244 330 h -0.37756 -0.37755 z m -41.13203,-5.91339 3.75959,-7.1634 0.31723,0.31396 0.31724,0.31396 -2.48747,4.84944 -2.48746,4.84943 -1.58937,2 -1.58936,2 z m -131.18854,1.54267 -2.62591,-3.12072 -1.46298,-3.50141 -1.46298,-3.5014 0.0321,-1.12787 0.0321,-1.12788 2.71791,5.45396 2.7179,5.45397 2.61582,1.8911 2.61581,1.89111 3.1197,-1.61326 3.1197,-1.61326 0.63204,-2.51825 0.63204,-2.51826 -0.62676,-5.71355 -0.62676,-5.71356 -0.58149,-4.62428 -0.58149,-4.62427 1.64853,-3.18791 1.64854,-3.18791 1.69216,0.31218 1.69216,0.31219 3.11751,6.5 3.11751,6.5 0.68068,2.5 0.68068,2.5 -3.92308,-8.11366 -3.92308,-8.11366 -1.11587,-0.68965 -1.11587,-0.68964 -1.68538,3.53428 -1.68538,3.53428 1.17614,5.09531 1.17614,5.09532 v 6.00063 6.00064 l -2.92308,2.92307 L 158.15385,327 h -2.48803 -2.48803 z m 168.85264,-0.0338 -0.71353,-1.15451 1.15451,0.71353 L 321,324.11803 V 324.55902 325 h -0.44098 -0.44099 z M 318,321.5 V 321 h 0.5 0.5 v 0.5 0.5 h -0.5 -0.5 z m 34,-1 V 320 h 0.5 0.5 v 0.5 0.5 h -0.5 -0.5 z m -36,-2 V 318 h 0.5 0.5 v 0.5 0.5 h -0.5 -0.5 z m -2,-3 V 315 h 0.5 0.5 v 0.5 0.5 h -0.5 -0.5 z m -28,-2 V 313 h 0.5 0.5 v 0.5 0.5 h -0.5 -0.5 z m 27,0 V 313 h 0.5 0.5 v 0.5 0.5 H 313.5 313 Z M 177.33333,311.33333 178,310.66667 178.66667,311.33333 179.33333,312 H 178 176.66667 Z M 175,310.5 V 310 h 0.5 0.5 v 0.5 0.5 h -0.5 -0.5 z m -44,-1 V 309 h 0.5 0.5 v 0.5 0.5 h -0.5 -0.5 z m -29.05659,-6.69081 -4.103097,-5.1908 -2.513303,-4.95977 -2.513304,-4.95977 -1.396029,-4.59942 -1.396028,-4.59943 0.0065,-6 0.0065,-6 1.383219,-6.52446 1.383219,-6.52446 3.080412,-7.97554 3.080412,-7.97554 3.768999,-6.38135 3.76901,-6.38135 5.78999,-6.90811 5.79,-6.90811 -2.23013,-3.21054 -2.23012,-3.21054 -4.49996,-6 -4.49997,-6 -2.84645,-3.73684 -2.846451,-3.73684 -0.05891,-6.26316 -0.05891,-6.26316 1.136659,-15.41216 1.136662,-15.41217 0.55593,-0.89952 0.55594,-0.89952 2.3929,-0.90977 2.39289,-0.90978 1.86292,0.72146 1.86292,0.72146 5.39705,6.46456 5.39704,6.46456 6.21044,8.03544 6.21044,8.03544 4.18294,8 4.18293,8 0.65901,-1.86204 0.65901,-1.86203 0.1819,-12.78153 0.18189,-12.78152 0.90742,-2.35644 0.90741,-2.35644 13.74741,-16.5 13.74741,-16.5 2.00268,-2.68741 2.00267,-2.68741 2.92396,-1.21114 2.92395,-1.21114 1.68427,1.68853 1.68426,1.68853 -0.35276,18.20108 -0.35275,18.20108 -1.88434,6.00894 -1.88435,6.00894 -0.0129,1.25 L 182,164 h 1.77293 1.77294 l 9.87008,-2.50375 9.87008,-2.50375 1.35699,1.12619 1.35698,1.1262 v 0.83261 0.83262 l -7.75,5.92116 -7.75,5.92117 -6.28105,6.56956 -6.28105,6.56956 -2.52408,5.70739 -2.52408,5.70739 -2.06172,8.59682 -2.06172,8.59683 0.63257,9.5 0.63257,9.5 0.54511,3 0.54511,3 -1.01412,-1.57775 -1.01412,-1.57774 -1.13015,-6.92226 -1.13014,-6.92225 0.67272,-8 0.67272,-8 2.05027,-6 2.05027,-6 2.87106,-5.7425 2.87105,-5.74251 6.51618,-6.90749 6.51618,-6.90749 6.47321,-4.21746 L 206,162.76508 V 161.88254 161 h -2.01838 -2.01839 l -7.23161,1.96787 -7.23162,1.96788 -3.19789,0.94737 -3.19789,0.94738 -1.09684,-1.32161 -1.09684,-1.3216 2.50945,-8.84365 2.50944,-8.84364 0.28529,-17 0.28528,-17 -2.64343,-0.30614 -2.64343,-0.30614 -16.35657,19.65305 -16.35657,19.65305 -0.73491,9.65309 -0.73491,9.65309 0.57485,5.67894 0.57485,5.67895 -0.65733,2.07105 L 144.86522,186 h -1.90417 -1.90417 l -3.99804,-8.25 -3.99804,-8.25 -7.2804,-9.66294 -7.2804,-9.66293 -4.70684,-5.08707 L 109.08633,140 h -2.02011 -2.02011 l -1.46053,2.25 -1.46053,2.25 -1.20147,18.79734 -1.201469,18.79734 1.206259,2.64744 1.20625,2.64744 8.43269,11.17126 L 119,209.73207 v 1.14214 1.14213 l -6.0965,7.24183 -6.0965,7.24183 -5.3946,11 -5.394594,11 -2.119025,8.40401 -2.119024,8.40401 0.388593,9.67485 0.388594,9.67485 3.270455,6.64324 3.270455,6.64324 3.974326,5.0279 3.97433,5.0279 h -0.5 -0.5 z M 124,290.5 V 290 h 0.5 0.5 v 0.5 0.5 h -0.5 -0.5 z m -1,-3 V 287 h 0.5 0.5 v 0.5 0.5 h -0.5 -0.5 z m -0.92105,-3.08333 0.0789,-1.91667 0.52522,1.3125 0.52522,1.3125 -0.60416,0.60417 L 122,286.33333 Z M 158,284 l -1.5,-0.96937 1.30902,-0.0153 1.30901,-0.0153 -0.61803,-1 -0.61803,-1 h 0.93657 0.93657 l 1.11377,1.34201 1.11377,1.34201 -0.65799,0.65799 -0.65799,0.65799 -0.58334,-0.0153 -0.58333,-0.0153 z m -29,-0.5 V 283 h 0.5 0.5 v 0.5 0.5 h -0.5 -0.5 z m 26,-1 V 282 h 0.5 0.5 v 0.5 0.5 h -0.5 -0.5 z m -28.54112,-1.56653 -0.65915,-1.06653 0.4766,-0.4766 0.47659,-0.4766 0.59216,1.54313 0.59215,1.54313 h -0.4096 -0.4096 z M 120.60699,278.41821 120,276.83643 v -7.85284 -7.85284 l 1.51412,-7.31537 1.51412,-7.31538 4.44279,-9.25 4.44279,-9.25 h 1.92787 1.92786 l 0.68603,5.75 0.68603,5.75 1.8481,7.5 1.8481,7.5 0.59577,2 0.59577,2 -1.62035,-3.5 -1.62036,-3.5 -2.02611,-9.5 -2.0261,-9.5 -0.36115,-1.31338 -0.36115,-1.31338 -1.02945,0.63623 -1.02944,0.63622 -2.8836,5.7124 -2.88361,5.7124 -2.32036,7.46475 -2.32035,7.46476 -0.0237,11.24782 -0.0237,11.24781 -0.14301,0.002 -0.14301,0.002 z M 125.15789,276 v -2.5 l 0.50439,1.25 0.50439,1.25 -0.50439,1.25 -0.50439,1.25 z m 0.07,-11.5 -0.0742,-9 1.20519,-4 1.20519,-4 h 1.75434 1.75434 l 3.3126,8.21568 3.31261,8.21569 -0.7304,-0.45141 -0.7304,-0.45142 -2.79829,-6.76427 -2.79829,-6.76427 -0.72765,-0.85736 -0.72766,-0.85736 -1.24396,2.32436 -1.24396,2.32436 -0.69768,10.533 L 125.302,273.5 Z M 141,269.5 V 269 h 0.5 0.5 v 0.5 0.5 h -0.5 -0.5 z m -2,-3 V 266 h 0.5 0.5 v 0.5 0.5 h -0.5 -0.5 z m 6,-1 V 265 h 0.5 0.5 v 0.5 0.5 h -0.5 -0.5 z m -3,-6 V 259 h 0.5 0.5 v 0.5 0.5 h -0.5 -0.5 z m 31,-17 V 242 h 0.5 0.5 v 0.5 0.5 h -0.5 -0.5 z m 83.24266,-24.43918 -4.05742,-2.93918 -5.59262,-3.15628 L 241,208.80908 v -0.47496 -0.47497 l 6.75,3.66061 6.75,3.66061 3.46223,2.90982 3.46222,2.90981 h -0.56219 -0.56218 z m -57.47475,-19.78555 3.26791,-0.40466 2.73209,0.41486 2.73209,0.41487 -6,-0.0102 -6,-0.0102 z M 183.66667,197.33333 183,196.66667 l 0.0354,-4.08334 0.0354,-4.08333 1.21457,-2.16345 1.21456,-2.16346 3.68907,-3.97713 3.68907,-3.97713 6.27356,-3.81098 6.27356,-3.81099 5.65176,-0.40881 5.65176,-0.40881 5.88561,1.69466 5.88561,1.69466 9.63734,5.02069 9.63733,5.0207 6.36267,6.01919 6.36266,6.0192 -2,-1.43345 -2,-1.43345 -5.27024,-4.30078 -5.27023,-4.30078 -8.96498,-4.38895 -8.96498,-4.38894 -7.6244,-2.09172 -7.62439,-2.09173 -3.27073,0.6136 -3.27073,0.61359 -5.86966,3.82279 -5.86966,3.82278 -5.25,5.59449 -5.25,5.59449 v 3.97653 3.97652 l 1.25,0.50439 1.25,0.50439 -1.08333,0.0789 -1.08334,0.0789 z m 83.11813,-14.0918 -3.2848,-2.75846 -4.5,-3.07446 -4.5,-3.07446 -7.72942,-4.35433 -7.72941,-4.35432 0.37998,-0.37998 0.37998,-0.37999 5.34944,2.69655 5.34943,2.69655 6.5,4.23799 6.5,4.23799 4,3.59107 4,3.59107 -0.7152,0.0416 L 270.06959,186 Z M 342,183.5 V 183 h 0.5 0.5 v 0.5 0.5 h -0.5 -0.5 z m -2.59353,-5.73973 -1.90647,-4.26012 -6.5,-6.61896 -6.5,-6.61895 -3.5,-2.12738 -3.5,-2.12738 1.35821,-0.004 1.3582,-0.004 6.25692,4.97878 6.25692,4.97878 2.49059,3.27122 2.49059,3.27122 2.21405,4.34691 2.21404,4.3469 -0.41329,0.41329 -0.41329,0.41329 z M 237,164.5 V 164 h 0.5 0.5 v 0.5 0.5 h -0.5 -0.5 z m -2,-1 V 163 h 0.5 0.5 v 0.5 0.5 h -0.5 -0.5 z m -4.25,-2.07197 -2.75,-1.4919 v -1.43288 -1.43288 l 2.25,-1.1807 2.25,-1.18069 -1.79792,2.0272 -1.79791,2.0272 2.79791,2.08663 2.79792,2.08663 -0.5,-0.008 -0.5,-0.008 z M 316,155.5 V 155 h 0.5 0.5 v 0.5 0.5 h -0.5 -0.5 z m -82,-1 V 154 h 0.5 0.5 v 0.5 0.5 h -0.5 -0.5 z m 3,-1 V 153 h 0.5 0.5 v 0.5 0.5 h -0.5 -0.5 z m 4.54509,-2.00083 3.0451,-1.33768 7.4549,-0.71094 7.45491,-0.71093 -0.5,0.53826 -0.5,0.53825 -9.25044,1.59193 L 239.99911,153 239.24956,152.9184 238.5,152.8368 Z"
         id="path38" />
      <path
         style="fill:#d2e5a4"
         d="M 147.39406,367.75 125.30479,345.5 123.1524,342.61514 121,339.73028 v -2.79429 -2.7943 l 4.75,-3.14626 4.75,-3.14626 -4.25,3.95989 -4.25,3.95989 0.004,1.36553 0.004,1.36552 1.90348,3.1216 1.90348,3.12161 22.19182,22.12839 22.1913,22.1284 h 3.45062 3.45062 l 3.01008,-1.55657 3.01007,-1.55657 4.19027,-3.69343 L 191.5,378.5 l -1.5,1.91612 -1.5,1.91613 -4.8398,3.83387 L 178.8204,390 h -4.66853 -4.66854 z m 78.86533,10 -0.9855,-1.25 -0.60342,-6.7939 -0.60342,-6.7939 -1.28352,-2.66977 -1.28353,-2.66978 -2.83653,-1.53632 -2.83653,-1.53633 -11.44432,11.88582 -11.44431,11.88582 -0.51563,-0.51563 -0.51563,-0.51563 10.70168,-11.16807 10.70169,-11.16807 1.86375,-0.99745 1.86376,-0.99746 2.95182,1.74369 2.95182,1.74368 1.58076,3.95071 1.58076,3.95071 0.59306,6.35094 0.59306,6.35094 h 2.35951 2.35951 l 8.3343,-7.75 8.3343,-7.75 10.51784,-11 10.51783,-11 4.81164,-7.5 4.81165,-7.5 3.67837,-8 3.67837,-8 1.08927,-6 1.08926,-6 1.21115,-10.75999 1.21115,-10.76 -0.59939,-11.74 -0.5994,-11.74001 -1.98769,-8.06382 -1.98768,-8.06382 -3.44775,-7.56559 -3.44775,-7.56559 -5.08239,-7.53176 -5.08238,-7.53177 -5.29774,-5.83882 -5.29773,-5.83883 -1.43146,-2 -1.43145,-2 4.78663,4.5 4.78663,4.5 6.43604,8.5 6.43604,8.5 4.83751,10 4.8375,10 1.56955,6.5 1.56955,6.5 1.18117,10 1.18118,10 -1.6363,16.381 -1.63629,16.381 -1.02946,4.59362 -1.02945,4.59362 -5.76236,11.02538 -5.76237,11.02538 -2.58452,4 -2.58453,4 -16.31499,16.5 -16.31498,16.5 -3.42105,2.75 -3.42106,2.75 h -2.24005 -2.24005 z m -76.42938,-15.01736 -14.29406,-12.26737 -0.94015,-2.67329 -0.94014,-2.67329 4.78157,-5.59689 4.78157,-5.59689 -0.51488,-2.69344 -0.51489,-2.69344 1.40549,1.92212 1.40548,1.92211 v 0.80599 0.80599 l -3.32332,3.75288 -3.32333,3.75288 -1.60226,2.36627 -1.60226,2.36626 1.02582,2.13374 1.02582,2.13373 13.34885,11.26185 13.34885,11.26184 1.57369,0.60389 1.57369,0.60388 3.22723,-3.40602 3.22722,-3.40601 4.5,-3.95044 4.5,-3.95045 -4.87578,5.49073 -4.87578,5.49073 -2.42998,2.25 -2.42999,2.25 h -1.8822 -1.8822 z M 391,362.00319 l -4.5,-0.72958 -7,-1.58043 -7,-1.58043 -8,-2.68163 -8,-2.68162 -4,-2.01356 -4,-2.01357 -8.03894,-5.22951 -8.03895,-5.22951 -4.84134,-5.38168 -4.84134,-5.38167 -4.0531,-5.96517 -4.05309,-5.96517 -3.39821,-8.03483 -3.3982,-8.03483 -2.38122,-9 -2.38122,-9 -0.99695,-6.5 -0.99694,-6.5 -1.06446,-11 -1.06446,-11 -2.07516,-10.5 -2.07516,-10.5 -3.03988,-8 -3.03989,-8 -2.55303,-4.5 -2.55303,-4.5 -4.33985,-5.7158 -4.33985,-5.71581 -1.71786,-1.28419 L 271.5,186.5 l -1.5,-1.96093 -1.5,-1.96093 3.31994,2.32882 3.31993,2.32882 3.96198,5.01229 3.96198,5.01228 3.85825,6.61982 3.85825,6.61983 2.98907,8.5 2.98906,8.5 1.64735,7.98546 1.64734,7.98546 1.99401,17.44155 1.994,17.44154 2.43623,9.07299 2.43622,9.073 3.43587,8.33471 3.43587,8.3347 5.05618,7.6653 5.05617,7.66529 5.30115,5.14241 5.30115,5.1424 6.5635,4.43664 6.56349,4.43663 7.93651,3.30869 7.9365,3.30869 6.46492,1.85315 6.46491,1.85314 10.16342,1.50913 L 398.75668,361 H 402.87834 407 v -1.08045 -1.08044 l -4.25,-1.64594 -4.25,-1.64595 -10,-4.85702 -10,-4.85703 -8.0207,-5.32751 -8.0207,-5.32751 -5.27785,-5.58055 -5.27785,-5.58055 -3.20145,-6.75852 L 345.5,310.5 l -0.61159,-56 -0.61159,-56 -1.06039,-5.13768 -1.0604,-5.13768 -1.05091,-3.80609 -1.05091,-3.80609 0.36698,-0.36699 0.36699,-0.36698 1.62278,4.31075 1.62278,4.31076 1.04384,7.5 1.04384,7.5 0.48215,51.5 0.48216,51.5 1.53168,5.1911 1.53168,5.1911 2.89867,4.3089 2.89868,4.3089 4.30536,4.62694 4.30536,4.62693 7.20725,4.66235 7.20726,4.66235 8.26416,3.85138 8.26417,3.85139 6.85629,2.80452 6.85628,2.80452 0.50559,1.31755 0.50559,1.31754 -1.23432,1.48726 L 407.75511,363 401.62756,362.86639 395.5,362.73277 Z m -205.5,-6.01047 2,-2.2983 6.02966,-6.09721 6.02966,-6.09721 4.67718,-5.25 4.67717,-5.25 h 1.38763 1.38762 l 2.90554,2.52055 2.90554,2.52054 4.9315,1.47946 L 227.363,339 h 1.69638 1.69637 l 3.57926,-1.49551 3.57926,-1.49551 7.3883,-4.48555 7.38831,-4.48554 4.48387,-4.79362 4.48387,-4.79363 1.87782,-2.97532 1.87782,-2.97532 2.3537,-2.89901 2.35369,-2.89902 3.00732,-5.95746 3.00732,-5.95746 1.82914,-7.15188 1.82914,-7.15189 1.18163,-9.49164 1.18163,-9.49164 -1.5256,-7.2523 -1.52559,-7.2523 -3.78291,-7.2477 -3.78291,-7.2477 -7.73013,-7.77033 -7.73014,-7.77033 4.50991,3.1029 4.5099,3.10289 4.54338,5.66744 4.54338,5.66743 3.91987,8.01816 3.91986,8.01816 0.61898,8.02674 0.61897,8.02675 -1.26374,8.95509 -1.26374,8.9551 -2.43113,7.5 -2.43114,7.5 -2.59241,4.5 -2.59241,4.5 -3.05483,4 -3.05482,4 -4.77246,5.31108 -4.77247,5.31108 -5.76782,4.31337 -5.76783,4.31337 -5.21676,2.62555 L 233.06649,340 h -4.56536 -4.56537 l -3.66405,-1.53094 -3.66406,-1.53094 -3.23617,-2.46835 -3.23617,-2.46835 -4.81765,5.22328 -4.81766,5.22327 -6.5,6.87095 -6.5,6.87096 -2,1.05057 -2,1.05057 z M 141,327.5 V 327 h 0.5 0.5 v 0.5 0.5 h -0.5 -0.5 z m 14.33333,-2.16667 0.66667,-0.66666 0.66667,0.66666 L 157.33333,326 H 156 154.66667 Z M 160.5,323 l 0.61803,-1 h 0.5 0.5 l -0.61803,1 -0.61803,1 h -0.5 -0.5 z M 138,322.5 V 322 h 0.5 0.5 v 0.5 0.5 h -0.5 -0.5 z m 11,-2 V 320 h 0.5 0.5 v 0.5 0.5 h -0.5 -0.5 z m 13,-0.5 v -1.33333 l 0.66667,0.66666 0.66666,0.66667 -0.66666,0.66667 L 162,321.33333 Z m -27,-2.5 V 317 h 0.5 0.5 v 0.5 0.5 h -0.5 -0.5 z m 12,-1 V 316 h 0.5 0.5 v 0.5 0.5 h -0.5 -0.5 z m -34,-3 V 313 h 0.5 0.5 v 0.5 0.5 h -0.5 -0.5 z m 18.59129,-1.75 -1.45482,-2.25 -2.16326,-5.5 -2.16326,-5.5 -1.86456,-5.95708 -1.86457,-5.95708 0.32354,-0.32353 0.32354,-0.32354 3.22935,9.28061 3.22934,9.28062 2.26075,4.75 2.26075,4.75 h -0.33099 -0.33099 z m 13.7632,-0.72757 -0.59552,-2.97758 -1.37948,-1.14487 L 142,305.75511 v -4.2427 -4.24269 l 2,-2.54259 2,-2.54259 v -0.99253 -0.99253 l -4.92644,-1.18183 -4.92644,-1.18184 -4.04527,-2.623 -4.04528,-2.62301 -0.58381,-1.52137 -0.5838,-1.52138 2.30552,2.1095 2.30552,2.1095 3.09894,1.56454 3.09894,1.56454 4.66806,1.17543 4.66806,1.17543 0.49952,0.80825 0.49953,0.80825 -2.51653,3.7083 -2.51652,3.7083 v 3.03172 3.03171 l 1.38871,1.57874 1.3887,1.57874 0.69075,3.25 0.69075,3.25 H 146.55446 145.95 Z M 107.87244,309.25 106.5,307.5 l 1.75,1.37244 1.75,1.37245 V 310.62244 311 h -0.37756 -0.37755 z m 67.79423,1.08333 L 175,309.66667 v -0.73972 -0.73971 l 1.89041,0.49435 1.89042,0.49436 1.7419,-5.33798 1.74191,-5.33797 0.9021,-1.14394 0.90211,-1.14394 15.21557,-0.40561 15.21558,-0.4056 5.15161,-2.28127 5.15161,-2.28128 2.269,-2.41523 2.269,-2.41524 -0.44958,-0.44958 -0.44958,-0.44958 -7.97103,-1.6146 -7.97103,-1.61459 -9.38764,-4.52903 -9.38765,-4.52902 -7.20707,-7.20707 -7.20707,-7.20707 -3.76631,-7.62061 -3.7663,-7.62061 0.41279,-1.23839 0.4128,-1.2384 2.21984,5.8008 2.21984,5.8008 3.51336,4.78615 3.51336,4.78616 5.33576,4.87658 5.33575,4.87658 6.89561,3.62353 6.8956,3.62354 7.46357,2.06826 L 223.4598,283 h 2.07897 2.07897 l 1.94113,1.51056 1.94113,1.51056 -3.89721,3.47267 -3.89721,3.47267 -5.60279,2.21218 -5.60279,2.21219 -13.56571,0.13167 -13.56571,0.13167 -1.0449,0.64579 -1.0449,0.64578 -1.69113,6.02713 L 179.89652,311 h -1.78159 -1.7816 z M 162,308.5 V 308 h 0.5 0.5 v 0.5 0.5 h -0.5 -0.5 z m 12,-2 V 306 h 0.5 0.5 v 0.5 0.5 h -0.5 -0.5 z m -71,-3 V 303 h 0.5 0.5 v 0.5 0.5 h -0.5 -0.5 z m 70,0 V 303 h 0.5 0.5 v 0.5 0.5 h -0.5 -0.5 z m -12.92105,-3.08333 0.0789,-1.91667 0.52522,1.3125 0.52522,1.3125 -0.60416,0.60417 L 160,302.33333 Z M 172,301.5 V 301 h 0.5 0.5 v 0.5 0.5 h -0.5 -0.5 z m -72,-2 V 299 h 0.5 0.5 v 0.5 0.5 h -0.5 -0.5 z m 71,0 V 299 h 0.5 0.5 v 0.5 0.5 h -0.5 -0.5 z m -22.41009,-21.75 -7.15787,-7.25 5.03398,4.65659 5.03398,4.65659 3.88955,2.59341 3.88954,2.59341 h -1.76566 -1.76566 z m -27.51096,3.66667 0.0789,-1.91667 0.52522,1.3125 0.52522,1.3125 -0.60416,0.60417 L 121,283.33333 Z m 32.37618,-5.66667 -4.7302,-5.25 -2.42306,-3.82611 -2.42305,-3.82611 -0.56649,-1.67389 -0.56649,-1.67389 3.21889,5 3.21889,5 5.62689,5.75 5.62688,5.75 h -1.12602 -1.12603 z M 126,278 v -1.33333 l 0.66667,0.66666 0.66666,0.66667 -0.66666,0.66667 L 126,279.33333 Z m -1,-4.5 V 273 h 0.5 0.5 v 0.5 0.5 h -0.5 -0.5 z m 14.27814,-5.75 -0.96674,-1.25 -0.71472,-1.25 -0.71471,-1.25 h 0.444 0.44401 l 1.63806,2.5 1.63807,2.5 h -0.40061 -0.40061 z M 142,258.5 V 258 h 0.5 0.5 v 0.5 0.5 h -0.5 -0.5 z m 111,-44 V 214 h 0.5 0.5 v 0.5 0.5 h -0.5 -0.5 z m -2.59549,-1.65451 -0.71353,-1.15451 1.15451,0.71353 L 252,213.11803 V 213.55902 214 h -0.44098 -0.44099 z M 248,211.5 V 211 h 0.5 0.5 v 0.5 0.5 h -0.5 -0.5 z m -2,-1 V 210 h 0.5 0.5 v 0.5 0.5 h -0.5 -0.5 z m -2,-1 V 209 h 0.5 0.5 v 0.5 0.5 h -0.5 -0.5 z m -5.62004,-2.506 -4.12004,-1.93296 -9.73943,-2.53052 L 214.78105,200 212.14052,199.98469 209.5,199.96937 208,199 l -1.5,-0.96937 1.13953,-0.0153 1.13953,-0.0153 8.28655,1.57193 8.28655,1.57193 7.70691,2.43461 7.7069,2.43461 1.23946,1.49346 1.23946,1.49346 -0.37245,-0.0365 -0.37244,-0.0365 z m -49.61205,-9.71873 3.26791,-0.40466 2.73209,0.41486 2.73209,0.41487 -6,-0.0102 -6,-0.0102 z M 246,182.5 V 182 h 0.5 0.5 v 0.5 0.5 h -0.5 -0.5 z m 18.40451,-2.65451 -0.71353,-1.15451 1.15451,0.71353 L 266,180.11803 V 180.55902 181 h -0.44098 -0.44099 z M 339,178.5 V 178 h 0.5 0.5 v 0.5 0.5 h -0.5 -0.5 z m -1,-2 V 176 h 0.5 0.5 v 0.5 0.5 h -0.5 -0.5 z m -1.59549,-2.65451 -0.71353,-1.15451 1.15451,0.71353 L 338,174.11803 V 174.55902 175 h -0.44098 -0.44099 z m -3,-4 -0.71353,-1.15451 1.15451,0.71353 L 335,170.11803 V 170.55902 171 h -0.44098 -0.44099 z M 243,166.5 V 166 h 0.5 0.5 v 0.5 0.5 h -0.5 -0.5 z m -2,-1 V 165 h 0.5 0.5 v 0.5 0.5 h -0.5 -0.5 z m 86.40499,-1.75 -1.90499,-2.25 2.25,1.90499 2.25,1.90499 V 165.65499 166 h -0.34501 -0.34501 z M 235.75,163.42803 233,161.93613 v -0.49375 -0.49374 l 3.25,1.65286 3.25,1.65285 0.41667,0.37283 0.41666,0.37282 -0.91666,-0.04 -0.91667,-0.04 z m 80.75,-6.33417 -6,-2.75796 -8.5,-2.41795 -8.5,-2.41795 -17.5,0.0517 -17.5,0.0517 6,-0.86079 6,-0.86079 13,0.44571 13,0.44572 8.5,2.53992 8.5,2.53992 4.75,2.65893 4.75,2.65893 v 0.4145 V 160 l -0.25,-0.0741 -0.25,-0.0741 z m -84.76667,-1.21795 1.23334,-1.24258 0.55979,0.5598 0.5598,0.55979 -1.79313,0.68279 -1.79313,0.68278 z m 3.6,-1.54258 0.66667,-0.66666 0.66667,0.66666 L 237.33333,155 H 236 234.66667 Z m 3,-1 0.66667,-0.66666 0.66667,0.66666 L 240.33333,154 H 239 237.66667 Z"
         id="path37" />
      <path
         style="fill:#9bdd97"
         d="M 170,388.5 V 388 h 0.5 0.5 v 0.5 0.5 h -0.5 -0.5 z m 6.33333,-0.16667 0.66667,-0.66666 0.66667,0.66666 L 178.33333,389 H 177 175.66667 Z M 179,387.5 V 387 h 0.5 0.5 v 0.5 0.5 h -0.5 -0.5 z m 2.5,-1.15653 1,-0.96487 7,-6.43714 7,-6.43714 -2.5,2.92101 -2.5,2.92101 -3.40283,3.07683 -3.40283,3.07683 -2.09717,1.40417 -2.09717,1.40417 z M 159,378.5 V 378 h 0.5 0.5 v 0.5 0.5 h -0.5 -0.5 z m 6.33333,-3.16667 0.66667,-0.66666 0.66667,0.66666 L 167.33333,376 H 166 164.66667 Z M 163,374.5 V 374 h 0.5 0.5 v 0.5 0.5 h -0.5 -0.5 z m 5,0 V 374 h 0.5 0.5 v 0.5 0.5 h -0.5 -0.5 z m -17.07569,-4.25 -2.42431,-2.75 2.75,2.42431 2.75,2.42432 V 372.67431 373 h -0.32569 -0.32568 z m 5.4802,-1.40451 -0.71353,-1.15451 1.15451,0.71353 L 158,369.11803 V 369.55902 370 h -0.44098 -0.44099 z M 179.4687,363.16335 185.43739,357 H 185.7187 186 v 0.77754 0.77754 l -6.25,5.38582 -6.25,5.38581 z M 142.46241,361.75 137.5,356.5 l 5.25,4.96241 5.25,4.96241 V 366.71241 367 h -0.28759 -0.28759 z m 8.4619,2.5 -2.42431,-2.75 2.75,2.42431 2.75,2.42432 V 366.67431 367 h -0.32569 -0.32568 z M 249,360.5 252.39233,357 h 0.5 0.5 L 250,360.5 246.60767,364 h -0.5 -0.5 z M 143.87244,358.25 142.5,356.5 l 1.75,1.37244 1.75,1.37245 V 359.62244 360 h -0.37756 -0.37755 z m -6.43535,-5.5 -2.93709,-3.25 3.25,2.93709 3.25,2.93709 V 355.68709 356 h -0.31291 -0.31291 z M 212,355.5 V 355 h 0.5 0.5 v 0.5 0.5 h -0.5 -0.5 z m 9,0 V 355 h 0.5 0.5 v 0.5 0.5 h -0.5 -0.5 z m -6,-2 V 353 h 0.5 0.5 v 0.5 0.5 h -0.5 -0.5 z m -86.53759,-6.75 -4.96241,-5.25 5.25,4.96241 5.25,4.96241 V 351.71241 352 h -0.28759 -0.28759 z M 134,348.5 V 348 h 0.5 0.5 v 0.5 0.5 h -0.5 -0.5 z m 1.5,-6.5 1.80998,-2 h 0.5 0.5 l -1.80998,2 -1.80998,2 h -0.5 -0.5 z m 64.5,0.68709 v -0.31291 l 3.25,-2.93709 3.25,-2.93709 -2.93709,3.25 -2.93709,3.25 H 200.31291 200 Z M 123,340.5 V 340 h 0.5 0.5 v 0.5 0.5 H 123.5 123 Z M 228.33333,340.33333 229,339.66667 229.66667,340.33333 230.33333,341 H 229 227.66667 Z M 222,339.5 V 339 h 0.5 0.5 v 0.5 0.5 h -0.5 -0.5 z m -99.92105,-2.08333 0.0789,-1.91667 0.52522,1.3125 0.52522,1.3125 -0.60416,0.60417 L 122,339.33333 Z M 140,336.5 142.34863,334 h 0.5 0.5 L 141,336.5 138.65137,339 h -0.5 -0.5 z m 79,2 V 338 h 0.5 0.5 v 0.5 0.5 h -0.5 -0.5 z m -2,-1 V 337 h 0.5 0.5 v 0.5 0.5 h -0.5 -0.5 z m -2.59549,-1.65451 -0.71353,-1.15451 1.15451,0.71353 L 216,336.11803 V 336.55902 337 h -0.44098 -0.44099 z M 126.25,331.97521 130,328.80601 v -3.24802 -3.24801 l -1.75,-1.48552 -1.75,-1.48552 -4.81148,-1.77566 -4.81149,-1.77566 -4.18137,-3.18923 -4.18137,-3.18924 -4.80104,-5.95458 L 98.912208,297.5 95.956104,291.59028 93,285.68056 v -1.47866 -1.47865 l 2.872388,5.38838 2.872388,5.38837 2.127614,0.31955 2.12761,0.31955 0.11848,-1.31955 0.11849,-1.31955 -0.16765,-1.27319 -0.16765,-1.27319 3.24376,-2.72681 3.24375,-2.72681 1.32093,0.2974 1.32093,0.2974 0.63614,-3.18068 0.63613,-3.18068 1.68703,-0.44117 1.68704,-0.44116 1.63117,-10.75698 1.63117,-10.75697 1.05835,-2.41858 1.05835,-2.41858 -0.59317,2.5 -0.59316,2.5 -0.57001,9.2253 -0.57001,9.22529 1.20407,6.27471 1.20406,6.2747 1.83371,6 1.8337,6 2.17436,5.5 2.17436,5.5 3.29095,5 3.29095,5 3.25303,5.79552 3.25304,5.79552 -0.40268,0.40268 -0.40268,0.40268 -7.05713,-11.6982 -7.05713,-11.6982 -2.73362,-7 -2.73362,-7 -2.17772,-3.24317 -2.17772,-3.24316 -1.12756,-0.007 -1.12755,-0.007 -1.19556,1.44056 -1.19556,1.44056 -1.58493,-0.6082 -1.58493,-0.60819 0.58129,3.5821 0.5813,3.58211 -1.92325,1.74052 L 108,300.30998 V 298.15499 296 h -1.94098 -1.94099 l -0.58702,0.94983 -0.58703,0.94982 2.02801,1.08536 2.02801,1.08536 v 1.96193 1.96194 l 3.51064,3.88586 3.51064,3.88585 5.23936,2.53751 5.23936,2.53751 2.69607,1.03351 2.69608,1.0335 1.19863,4.00069 1.19864,4.00068 -1.52624,2.29533 -1.52623,2.29532 -3.36847,1.8222 -3.36848,1.82221 z M 118.66667,285.33333 118,284.66667 V 286 v 1.33333 l 0.66667,-0.66666 L 119.33333,286 Z M 208,333.5 V 333 h 0.5 0.5 v 0.5 0.5 h -0.5 -0.5 z m 37,0 V 333 h 0.5 0.5 v 0.5 0.5 h -0.5 -0.5 z m -35,-1 V 332 h 0.5 0.5 v 0.5 0.5 h -0.5 -0.5 z m 38,-0.86381 v -0.5 L 251,329 l 3,-2.13619 v 0.5 0.5 L 251,330 l -3,2.13619 z M 278,325.5 V 325 h 0.5 0.5 v 0.5 0.5 h -0.5 -0.5 z m -127.44081,-3.83351 -2.54259,-3.33351 -0.54326,-3.41649 -0.54325,-3.41649 1.78495,4.1503 1.78496,4.15029 1.90499,2.09971 1.90499,2.0997 H 156 h 1.69002 l 1.52068,-1.75 1.52068,-1.75 0.70382,-2.95104 0.70382,-2.95104 -1.72333,-7.31787 -1.72333,-7.31786 1.34833,-4.08549 1.34834,-4.08549 2.16458,-1.41829 2.16458,-1.41829 1.71308,0.65737 1.71308,0.65737 2.52305,5.61531 2.52306,5.61532 1.42709,3.93899 1.42709,3.93898 -0.64362,-0.64361 -0.64361,-0.64362 -4.12871,-8.29537 L 167.5,291.5 l -1.77193,-0.32755 -1.77193,-0.32754 -2.01348,4.55182 -2.01349,4.55182 1.64867,5.6712 1.64866,5.67121 -0.46743,4.86465 -0.46743,4.86465 -1.80081,1.98987 L 158.69002,325 h -2.79412 -2.79412 z M 260,320.5 263.39233,317 h 0.5 0.5 L 261,320.5 257.60767,324 h -0.5 -0.5 z m 20,1 V 321 h 0.5 0.5 v 0.5 0.5 h -0.5 -0.5 z m 1,-2 V 319 h 0.5 0.5 v 0.5 0.5 h -0.5 -0.5 z m 1,-2 V 317 h 0.5 0.5 v 0.5 0.5 h -0.5 -0.5 z m 1,-2 V 315 h 0.5 0.5 v 0.5 0.5 h -0.5 -0.5 z m -18,-1 V 314 h 0.5 0.5 v 0.5 0.5 h -0.5 -0.5 z m -118.92105,-5.08333 0.0789,-1.91667 0.52522,1.3125 0.52522,1.3125 -0.60416,0.60417 L 146,311.33333 Z M 268,310.5 V 310 h 0.5 0.5 v 0.5 0.5 h -0.5 -0.5 z m -90,-2 V 308 h 0.5 0.5 v 0.5 0.5 h -0.5 -0.5 z m -33.8,-2.7 -1.2,-1.2 v -3.16045 -3.16046 l 2.5629,-3.77664 2.5629,-3.77665 -0.8129,-0.75219 -0.8129,-0.75218 -5.56283,-1.58424 -5.56282,-1.58423 -3.42261,-2.3065 -3.4226,-2.30649 -1.24983,-2.46999 -1.24983,-2.46998 0.009,-9.5 0.009,-9.5 0.89841,-3.87226 0.89841,-3.87227 1.04495,-1.04495 1.04495,-1.04495 0.67082,1.91721 0.67082,1.91722 3.8195,8.2978 3.81949,8.2978 8.32016,8.4522 8.32016,8.4522 h 2.66329 2.6633 l 0.56308,-0.91108 0.56308,-0.91108 -7.27928,-7.92857 -7.27927,-7.92857 -3.2326,-6.06499 -3.23261,-6.06498 -1.97683,-7.84537 -1.97683,-7.84536 0.10064,-2.5 0.10065,-2.5 0.44009,2 0.44009,2 1.06523,2.75 1.06523,2.75 1.12868,-0.0137 1.12868,-0.0137 2.21688,-0.59432 2.21688,-0.59431 0.6215,-1.95816 0.62149,-1.95815 4.51641,-5.08524 4.51641,-5.08523 0.99304,-2.84864 L 159.19565,223 h 2.33033 2.33032 l 1.95032,-5.25 1.95032,-5.25 0.74425,-3.5 0.74426,-3.5 4.30901,-9.25 4.30902,-9.25 h 0.58511 0.5851 l -2.37819,4.75 -2.3782,4.75 -2.26755,6.5 -2.26756,6.5 -0.10718,11 -0.10718,11 1.8006,7.48107 1.80061,7.48107 3.05347,5.7289 3.05347,5.7289 5.47783,6.29003 5.47783,6.29003 -6.65139,-6.9238 -6.6514,-6.9238 -4.31789,-9.0762 -4.31789,-9.0762 -0.70347,-3.23853 -0.70347,-3.23853 -1.07477,-0.66425 -1.07477,-0.66424 -1.34829,1.8439 -1.3483,1.84391 v 2.72941 2.72942 l -2.94438,0.64669 -2.94439,0.6467 -2.47097,4.18276 -2.47097,4.18276 -2.0918,2.21587 -2.0918,2.21587 -1.74285,-0.61305 -1.74284,-0.61305 1.25,1.34718 L 146,255.4 v 3.12856 3.12855 l 3.11668,4.70533 3.11668,4.70533 6.63332,6.54211 6.63332,6.54211 -1.94113,1.424 L 161.61774,287 h -1.34871 -1.34871 l -3.71016,-1.91922 -3.71016,-1.91921 -8.16249,-8.03002 -8.16249,-8.03002 -0.58045,1.51262 -0.58044,1.51261 -0.80481,-0.49739 -0.80481,-0.4974 -1.05801,0.68401 -1.05801,0.68402 -0.67925,3.69505 -0.67925,3.69504 2.78501,2.95267 2.785,2.95266 7.25,2.76028 7.25,2.76027 v 0.89507 0.89507 l -2.5,3.67908 -2.5,3.67908 v 3.06786 3.06787 l 1.2,1.2 1.2,1.2 h -0.5 -0.5 z m -13.01129,-50.30927 -0.40969,-3.50927 -0.81751,-0.50525 -0.81752,-0.50525 -0.62739,1.97675 -0.6274,1.97674 1.09058,2.03778 1.09059,2.03777 h 0.76401 0.76402 z M 142,245.5 V 245 h -0.5 -0.5 v 0.5 0.5 h 0.5 0.5 z m 37,61 V 306 h 0.5 0.5 v 0.5 0.5 h -0.5 -0.5 z m 93,-2 V 304 h 0.5 0.5 v 0.5 0.5 h -0.5 -0.5 z m -92,-1 V 303 h 0.5 0.5 v 0.5 0.5 h -0.5 -0.5 z m 1,-3.5 v -1.33333 l 0.66667,0.66666 0.66666,0.66667 -0.66666,0.66667 L 181,301.33333 Z m 1.5,-3 0.61803,-1 h 0.5 0.5 l -0.61803,1 -0.61803,1 h -0.5 -0.5 z m 3.76903,-1.69299 1.76903,-0.46099 1.23097,0.49804 1.23097,0.49805 -3,-0.0371 -3,-0.0371 z m 23.0643,0.0263 0.66667,-0.66666 0.66667,0.66666 L 211.33333,296 H 210 208.66667 Z M 215,294.5 V 294 h 0.5 0.5 v 0.5 0.5 H 215.5 215 Z M 114,293 v -1.33333 l 0.66667,0.66666 0.66666,0.66667 -0.66666,0.66667 L 114,294.33333 Z m 104,0.5 V 293 h 0.5 0.5 v 0.5 0.5 h -0.5 -0.5 z m 2,-1 V 292 h 0.5 0.5 v 0.5 0.5 h -0.5 -0.5 z m 2,-1 V 291 h 0.5 0.5 v 0.5 0.5 h -0.5 -0.5 z m 2.5,-1.5 0.61803,-1 h 0.5 0.5 l -0.61803,1 -0.61803,1 h -0.5 -0.5 z M 289,289.5 V 289 h 0.5 0.5 v 0.5 0.5 H 289.5 289 Z M 228,286 v -1.33333 l 0.66667,0.66666 0.66666,0.66667 -0.66666,0.66667 L 228,287.33333 Z m -4.1875,-1.68311 1.3125,-0.52522 0.60417,0.60416 L 226.33333,285 224.41667,284.921 222.5,284.8421 Z M 219,283.5 V 283 h 0.5 0.5 v 0.5 0.5 h -0.5 -0.5 z m -4.66667,-1.16667 0.66667,-0.66666 0.66667,0.66666 L 216.33333,283 H 215 213.66667 Z M 92,281 v -1.33333 l 0.666667,0.66666 L 93.333333,281 92.666667,281.66667 92,282.33333 Z m 119,0.5 V 281 h 0.5 0.5 v 0.5 0.5 h -0.5 -0.5 z m -2,-1 V 280 h 0.5 0.5 v 0.5 0.5 h -0.5 -0.5 z m -3,-1 V 279 h 0.5 0.5 v 0.5 0.5 h -0.5 -0.5 z m -2,-1 V 278 h 0.5 0.5 v 0.5 0.5 h -0.5 -0.5 z m -2,-1 V 277 h 0.5 0.5 v 0.5 0.5 h -0.5 -0.5 z m -2,-1 V 276 h 0.5 0.5 v 0.5 0.5 h -0.5 -0.5 z m -2,-1 V 275 h 0.5 0.5 v 0.5 0.5 h -0.5 -0.5 z m -2.59549,-1.65451 -0.71353,-1.15451 1.15451,0.71353 L 197,274.11803 V 274.55902 275 h -0.44098 -0.44099 z M 191.87244,271.25 190.5,269.5 l 1.75,1.37244 1.75,1.37245 V 272.62244 273 h -0.37756 -0.37755 z M 282,272 v -1.33333 l 0.66667,0.66666 0.66666,0.66667 -0.66666,0.66667 L 282,273.33333 Z m 20,-7.5 V 264 h 0.5 0.5 v 0.5 0.5 h -0.5 -0.5 z m -11.92105,-6.08333 0.0789,-1.91667 0.52522,1.3125 0.52522,1.3125 -0.60416,0.60417 L 290,260.33333 Z M 301,255.5 V 255 h 0.5 0.5 v 0.5 0.5 H 301.5 301 Z M 282,254 v -1.33333 l 0.66667,0.66666 0.66666,0.66667 -0.66666,0.66667 L 282,255.33333 Z m 7,-3 v -1.33333 l 0.66667,0.66666 0.66666,0.66667 -0.66666,0.66667 L 289,252.33333 Z M 122,248.5 V 248 h 0.5 0.5 v 0.5 0.5 H 122.5 122 Z M 300,246 v -1.33333 l 0.66667,0.66666 0.66666,0.66667 -0.66666,0.66667 L 300,247.33333 Z M 123,245.5 V 245 h 0.5 0.5 v 0.5 0.5 h -0.5 -0.5 z m 165,0 V 245 h 0.5 0.5 v 0.5 0.5 h -0.5 -0.5 z m -9,-2 V 243 h 0.5 0.5 v 0.5 0.5 h -0.5 -0.5 z m -1,-2 V 241 h 0.5 0.5 v 0.5 0.5 h -0.5 -0.5 z m 9,0 V 241 h 0.5 0.5 v 0.5 0.5 h -0.5 -0.5 z m 12,-1 V 240 h 0.5 0.5 v 0.5 0.5 h -0.5 -0.5 z m -22,-1 V 239 h 0.5 0.5 v 0.5 0.5 h -0.5 -0.5 z m -151,-1 V 238 h 0.5 0.5 v 0.5 0.5 h -0.5 -0.5 z m 150,-1 V 237 h 0.5 0.5 v 0.5 0.5 h -0.5 -0.5 z m 10,0 V 237 h 0.5 0.5 v 0.5 0.5 h -0.5 -0.5 z m -159,-1 V 236 h 0.5 0.5 v 0.5 0.5 h -0.5 -0.5 z m 148,-1 V 235 h 0.5 0.5 v 0.5 0.5 h -0.5 -0.5 z m 23,-0.5 v -1.33333 l 0.66667,0.66666 0.66666,0.66667 -0.66666,0.66667 L 298,236.33333 Z M 128,234.5 V 234 h 0.5 0.5 v 0.5 0.5 h -0.5 -0.5 z m 157,0 V 234 h 0.5 0.5 v 0.5 0.5 H 285.5 285 Z M 136.15789,232 v -2.5 l 0.50439,1.25 0.50439,1.25 -0.50439,1.25 -0.50439,1.25 z m 136.24662,-0.15451 -0.71353,-1.15451 1.15451,0.71353 L 274,232.11803 V 232.55902 233 h -0.44098 -0.44099 z M 284,232.5 V 232 h 0.5 0.5 v 0.5 0.5 h -0.5 -0.5 z m -1,-2 V 230 h 0.5 0.5 v 0.5 0.5 h -0.5 -0.5 z m 14,0 V 230 h 0.5 0.5 v 0.5 0.5 h -0.5 -0.5 z m -27.59549,-2.65451 -0.71353,-1.15451 1.15451,0.71353 L 271,228.11803 V 228.55902 229 h -0.44098 -0.44099 z M 133.33333,227.33333 134,226.66667 134.66667,227.33333 135.33333,228 H 134 132.66667 Z M 282,227.5 V 227 h 0.5 0.5 v 0.5 0.5 h -0.5 -0.5 z m 14,-1 V 226 h 0.5 0.5 v 0.5 0.5 h -0.5 -0.5 z m -15,-1 V 225 h 0.5 0.5 v 0.5 0.5 h -0.5 -0.5 z m -1,-2 V 223 h 0.5 0.5 v 0.5 0.5 h -0.5 -0.5 z m 15,-0.5 v -1.33333 l 0.66667,0.66666 0.66666,0.66667 -0.66666,0.66667 L 295,224.33333 Z m -31.12756,-1.75 -1.37244,-1.75 1.75,1.37244 1.75,1.37245 V 222.62244 223 h -0.37756 -0.37755 z M 279,221.5 V 221 h 0.5 0.5 v 0.5 0.5 h -0.5 -0.5 z m 15,-1 V 220 h 0.5 0.5 v 0.5 0.5 h -0.5 -0.5 z m 50.25218,-3 0.0202,-4 0.4349,2.26166 0.4349,2.26166 -0.45508,1.73834 -0.4551,1.73834 z m -89.93235,-2.32696 -7.18017,-4.67304 -4.04877,-2.43772 -4.04878,-2.43773 0.33777,-0.33777 0.33778,-0.33777 6.09019,3.44238 6.0902,3.44238 4.49995,3.09605 4.49996,3.09605 0.61004,0.98707 L 262.11803,220 261.80902,219.923 261.5,219.846 Z M 278,219.5 V 219 h 0.5 0.5 v 0.5 0.5 h -0.5 -0.5 z m 15,-2 V 217 h 0.5 0.5 v 0.5 0.5 h -0.5 -0.5 z m -17,-1 V 216 h 0.5 0.5 v 0.5 0.5 h -0.5 -0.5 z m 16,-2 V 214 h 0.5 0.5 v 0.5 0.5 h -0.5 -0.5 z m -18,-1 V 213 h 0.5 0.5 v 0.5 0.5 h -0.5 -0.5 z m 17,-1 V 212 h 0.5 0.5 v 0.5 0.5 h -0.5 -0.5 z m 53.232,-2.5 v -3.5 l 0.45733,1.75 0.45732,1.75 -0.45732,1.75 -0.45733,1.75 z M 272,210.5 V 210 h 0.5 0.5 v 0.5 0.5 h -0.5 -0.5 z m -3.12756,-4.25 -1.37244,-1.75 1.75,1.37244 1.75,1.37245 V 207.62244 208 h -0.37756 -0.37755 z M 288,206.5 V 206 h 0.5 0.5 v 0.5 0.5 h -0.5 -0.5 z m -55,-3 -3.5,-1.34784 1.5,-0.031 1.5,-0.031 3,1.37368 3,1.37367 -1,0.005 -1,0.005 z m 54,1 V 204 h 0.5 0.5 v 0.5 0.5 h -0.5 -0.5 z m 57,-1 V 203 h 0.5 0.5 v 0.5 0.5 h -0.5 -0.5 z m -81.54705,-4.75 -3.95295,-4.25 4.25,3.95295 4.25,3.95295 V 202.70295 203 h -0.29705 -0.29705 z M 286,202.5 V 202 h 0.5 0.5 v 0.5 0.5 h -0.5 -0.5 z m -67.68307,-2.52257 -8.18307,-1.74691 -13.06693,-0.7268 L 184,196.77692 v -3.94832 -3.94832 l 5.25,-5.59449 5.25,-5.59449 5.86966,-3.82278 5.86966,-3.82279 3.1925,-0.59892 3.1925,-0.59891 6.43784,1.65161 6.43784,1.6516 8,3.57316 8,3.57315 4.46093,3.04445 4.46092,3.04445 3.78908,3.4232 3.78907,3.4232 v 0.97631 0.97631 l -5.13341,-4.61538 -5.13341,-4.61537 -9.11659,-4.51414 -9.11659,-4.51413 -6.74424,-1.04047 -6.74424,-1.04047 -3.37384,3.57731 L 209.26385,181 h -1.24856 -1.24855 l 0.54823,2.09645 0.54824,2.09645 -0.52206,1.36046 -0.52206,1.36046 -2.96263,-0.59253 -2.96264,-0.59253 0.70055,2.79121 0.70055,2.79121 -1.77035,1.29452 -1.77036,1.29451 2.3729,0.46845 2.37289,0.46846 7.15043,1.15446 7.15043,1.15447 5.84957,1.83576 5.84957,1.83576 -1.5,-0.0466 -1.5,-0.0466 z m -26.48435,-8.36227 0.33257,-1.71124 -1.0739,-1.29397 -1.0739,-1.29397 0.65799,-0.65799 0.65799,-0.65799 2.08334,-0.005 2.08333,-0.005 2.91783,-2.33473 2.91784,-2.33473 0.23353,-1.59116 0.23354,-1.59117 -1.37041,-0.52587 -1.3704,-0.52588 -5.2397,4.47253 -5.23971,4.47253 -1.86963,2.95289 -1.86963,2.95288 0.50526,0.81754 0.50527,0.81754 2.8231,-0.12302 2.82311,-0.12302 z m 15.89659,-18.21933 -0.60417,-0.60416 -1.3125,0.52522 -1.3125,0.52522 1.91667,0.0789 1.91666,0.0789 z m 76.67534,26.44966 -0.71353,-1.15451 1.15451,0.71353 L 286,200.11803 V 200.55902 201 h -0.44098 -0.44099 z m -2,-3 -0.71353,-1.15451 1.15451,0.71353 L 284,197.11803 V 197.55902 198 h -0.44098 -0.44099 z M 343,197.5 V 197 h 0.5 0.5 v 0.5 0.5 h -0.5 -0.5 z m -63.59549,-4.65451 -0.71353,-1.15451 1.15451,0.71353 L 281,193.11803 V 193.55902 194 h -0.44098 -0.44099 z M 342,190.5 V 190 h 0.5 0.5 v 0.5 0.5 h -0.5 -0.5 z m -66,-2 V 188 h 0.5 0.5 v 0.5 0.5 h -0.5 -0.5 z m 65,-2 V 186 h 0.5 0.5 v 0.5 0.5 h -0.5 -0.5 z m -160.24119,-3 2.08248,-3 5.30268,-5 5.30268,-5 -6.41263,7 -6.41262,7 -0.97254,1 -0.97254,1 z m 87.21903,-1.36224 -3.47784,-2.86224 -7.30188,-4.71977 -7.30188,-4.71977 -9.93857,-5.16799 -9.93856,-5.16799 -0.12738,-1 -0.12739,-1 5.86549,-2.37429 5.86548,-2.37429 7.76061,-1.35483 7.76061,-1.35482 16.74174,-0.45522 16.74173,-0.45522 -13.68192,0.86698 -13.68192,0.86697 -10.31808,2.15157 -10.31808,2.15157 -4.75,1.53089 -4.75,1.5309 v 0.3031 0.3031 l 8.74105,4.64997 8.74105,4.64998 8.00895,5.34416 8.00895,5.34416 2.93709,3.08766 2.93709,3.08766 h -0.45924 -0.45925 z m 70.52713,-2.76393 -1.78378,-4.67076 -6.6106,-6.71098 -6.61059,-6.71097 -4,-2.09637 -4,-2.09636 0.78984,-0.0442 0.78984,-0.0442 3.71016,1.90675 3.71016,1.90675 5.64884,5.53682 5.64885,5.53683 2.73471,5.58954 2.7347,5.58954 -0.48918,0.48918 -0.48918,0.48918 z M 195.5,169 l 0.61803,-1 h 0.5 0.5 l -0.61803,1 -0.61803,1 h -0.5 -0.5 z m 3,-2 0.61803,-1 h 0.5 0.5 l -0.61803,1 -0.61803,1 h -0.5 -0.5 z m 3.83229,-2.76486 1.83228,-2.07447 -2.33228,-0.44415 -2.33229,-0.44416 3.25,-0.13618 L 206,161 v 0.88499 0.88499 l -2.75,1.76981 -2.75,1.76981 z M 189,164.5 V 164 h 0.5 0.5 v 0.5 0.5 h -0.5 -0.5 z m 3.33333,-1.16667 0.66667,-0.66666 0.66667,0.66666 L 194.33333,164 H 193 191.66667 Z m 5,-1 0.66667,-0.66666 0.66667,0.66666 L 199.33333,163 H 198 196.66667 Z M 314,156.5 V 156 h 0.5 0.5 v 0.5 0.5 h -0.5 -0.5 z m -2,-1 V 155 h 0.5 0.5 v 0.5 0.5 h -0.5 -0.5 z m -2.66667,-1.16667 0.66667,-0.66666 0.66667,0.66666 L 311.33333,155 H 310 308.66667 Z M 306,153.5 V 153 h 0.5 0.5 v 0.5 0.5 h -0.5 -0.5 z m -3,-1 V 152 h 0.5 0.5 v 0.5 0.5 h -0.5 -0.5 z m -4.66667,-1.16667 0.66667,-0.66666 0.66667,0.66666 L 300.33333,152 H 299 297.66667 Z m -4.52083,-1.01644 1.3125,-0.52522 0.60417,0.60416 0.60416,0.60417 -1.91666,-0.0789 -1.91667,-0.0789 z"
         id="path36" />
      <path
         style="fill:#53ced4"
         d="m 96,249.72368 v -1.27632 l 5.40742,-10.97368 5.40741,-10.97368 6.09259,-7.24183 L 119,212.01634 v -1.14213 -1.14214 l -8.43269,-11.17125 -8.43269,-11.17126 -1.20625,-2.64744 -1.206259,-2.64744 1.201469,-18.79734 1.20147,-18.79734 1.46053,-2.25 1.46053,-2.25 h 2.02011 2.02011 l 4.70683,5.08706 4.70684,5.08707 7.2804,9.66293 7.2804,9.66294 3.99804,8.25 3.99804,8.25 h 1.90417 1.90417 l 0.65733,-2.07106 0.65733,-2.07105 -0.57485,-5.67895 -0.57485,-5.67894 0.73491,-9.65309 L 146.5,151.19382 162.80987,131.59691 179.11974,112 h 2.47152 2.47151 l 0.62465,1.62783 0.62466,1.62782 -0.9672,17.86438 -0.9672,17.86438 -3.17153,2.83154 -3.17153,2.83154 -2.76731,4.08915 -2.76731,4.08915 -5.21944,5.83711 -5.21943,5.8371 -3.58445,4.64746 -3.58445,4.64746 -1.88714,0.4935 -1.88713,0.49349 -1.42508,3.35905 -1.42509,3.35904 -5.17139,5 -5.17139,5 -2.67823,4.18777 -2.67822,4.18778 -2.28428,1.04079 L 127,213.95712 v 1.49839 1.49838 l -2.5,1.63807 -2.5,1.63806 -0.005,1.13499 -0.005,1.13499 -3.44423,3.75 -3.44424,3.75 h -1.03194 -1.03193 l -0.62746,2.5 -0.62746,2.5 H 109.89159 108 v 1.95288 1.95287 l -3.92206,3.15186 -3.92206,3.15185 -1.199261,2.89527 L 97.757359,251 H 96.87868 96 Z m 21.74675,-49.23563 0.84613,-1.51196 8.73004,-8.90764 8.73003,-8.90765 -1.87853,-4.94387 -1.87852,-4.94387 -4.55838,-6.38653 L 123.17914,158.5 116.03707,150.25 108.895,142 h -1.38849 -1.38848 l -0.71292,1.15353 -0.71292,1.15353 -0.86518,8.59647 -0.86517,8.59647 -0.49915,11.26955 -0.49914,11.26955 3.62307,5.73045 3.62307,5.73045 3.09132,3.25 3.09132,3.25 h 0.75415 0.75414 z m 35.93495,-39.2835 2.3183,-2.29546 0.0275,-1.70454 0.0275,-1.70455 3.42737,-2.5 3.42737,-2.5 5.5451,-6.7445 5.5451,-6.74449 -4e-5,-0.75551 -5e-5,-0.7555 3.55632,-3 3.55632,-3 0.91987,-4 0.91987,-4 0.0238,-3.69098 0.0239,-3.69099 -1.0438,-0.6451 -1.04381,-0.64511 -1.62426,1.33609 L 177.66388,115.5 162.33194,133.88899 147,152.27798 v 5.27922 5.27923 l 0.61678,1.60731 0.61679,1.60731 1.56491,-1.27553 1.56492,-1.27552 z"
         id="path35" />
      <path
         style="fill:#70d5a4"
         d="M 96.974755,290.25 94.751959,286.5 93.375979,282.62427 92,278.74855 v -6.92687 -6.92687 l 1.580154,-6.9474 L 95.160308,251 h 1.298525 1.298526 l 1.19926,-2.89527 1.199261,-2.89527 3.92206,-3.15185 L 108,238.90575 V 236.95288 235 h 1.89159 1.89159 l 0.62746,-2.5 0.62746,-2.5 h 1.03193 1.03194 l 3.44424,-3.75 3.44423,-3.75 0.005,-1.13499 0.005,-1.13499 2.5,-1.63806 2.5,-1.63807 v -1.49838 -1.49839 l 2.28428,-1.04078 2.28428,-1.04079 2.67822,-4.18778 2.67823,-4.18777 5.17139,-5 5.17139,-5 1.42509,-3.35904 1.42508,-3.35905 1.88713,-0.49349 1.88714,-0.4935 3.58445,-4.64746 3.58445,-4.64746 5.21943,-5.8371 5.21944,-5.83711 2.72305,-4.02325 2.72305,-4.02325 2.52695,-2.34189 L 182,152.0955 v 0.77075 0.77075 l -1.5608,5.25578 -1.5608,5.25578 1.06675,1.28535 1.06676,1.28536 9.74404,-2.37644 9.74405,-2.37645 2,0.26681 2,0.26681 -7.5,5.57804 -7.5,5.57805 -5.31295,5.82141 -5.31294,5.82142 -4.83452,10.10054 -4.83451,10.10054 -0.72407,3.5 -0.72407,3.5 -1.95032,5.25 -1.95032,5.25 h -2.33032 -2.33033 l -0.99304,2.84864 -0.99304,2.84864 -4.51641,5.08523 -4.51641,5.08524 -0.62149,1.95815 -0.6215,1.95816 -2.21688,0.59431 -2.21688,0.59432 -1.08948,0.0137 -1.08949,0.0137 -1.0797,-2.36968 -1.0797,-2.36969 -0.6876,-4.58522 -0.68759,-4.58521 -1.28501,-1.75736 -1.285,-1.75735 -1.53228,1.27168 -1.53227,1.27167 -3.98542,8.19058 -3.98542,8.19058 -2.02818,7 -2.02818,7 -1.21182,8.67246 -1.21182,8.67246 -1.69886,0.44426 -1.69887,0.44426 -0.63613,3.18068 -0.63614,3.18068 -1.32093,-0.2974 -1.32093,-0.2974 -3.24375,2.72681 -3.24376,2.72681 0.16765,1.27319 0.16765,1.27319 -0.11849,1.25 L 103,294 h -1.90122 -1.901228 z m 32.005025,-33.28777 -1.09058,-2.03778 0.6274,-1.97674 0.62739,-1.97675 0.81752,0.50525 0.81751,0.50525 0.40969,3.50927 L 131.5984,259 h -0.76402 -0.76401 z M 141,245.5 V 245 h 0.5 0.5 v 0.5 0.5 h -0.5 -0.5 z m 44.34852,-52.7451 -0.50526,-0.81754 1.86963,-2.95288 1.86963,-2.95289 5.23971,-4.47253 5.2397,-4.47253 1.3704,0.52588 1.37041,0.52587 -0.23354,1.59117 -0.23353,1.59116 -2.91784,2.33473 -2.91783,2.33473 -2.08333,0.005 -2.08334,0.005 -0.65799,0.65799 -0.65799,0.65799 1.0739,1.29397 1.0739,1.29397 -0.33257,1.71124 -0.33258,1.71124 -2.82311,0.12302 -2.8231,0.12302 z m 20.46398,-19.43801 1.3125,-0.52522 0.60417,0.60416 0.60416,0.60417 -1.91666,-0.0789 -1.91667,-0.0789 z"
         id="path34" />
      <path
         style="fill:#35ccdd"
         d="m 112.30101,198.75 -3.09132,-3.25 -3.62307,-5.73045 -3.62307,-5.73045 0.49914,-11.26955 0.49915,-11.26955 0.86517,-8.59647 0.86518,-8.59647 0.71292,-1.15353 L 106.11803,142 h 1.38848 1.38849 l 7.14207,8.25 7.14207,8.25 4.55838,6.38653 4.55838,6.38653 1.87852,4.94387 1.87853,4.94387 -8.73003,8.90765 -8.73004,8.90764 -0.84613,1.51196 L 116.90062,202 h -0.75414 -0.75415 z M 147.61678,164.44374 147,162.83643 v -5.27923 -5.27922 l 15.33194,-18.38899 15.33194,-18.38899 1.62425,-1.33609 1.62426,-1.33609 1.04381,0.64511 1.0438,0.6451 -0.0239,3.69099 -0.0238,3.69098 -0.91987,4 -0.91987,4 -3.55632,3 -3.55632,3 5e-5,0.7555 4e-5,0.75551 -5.5451,6.74449 -5.5451,6.7445 -3.42737,2.5 -3.42737,2.5 -0.0275,1.70455 -0.0275,1.70454 -2.3183,2.29546 -2.3183,2.29545 -1.56492,1.27552 -1.56491,1.27553 z"
         id="path33" />
      <path
         style="fill:#d9cc37"
         d="m 387.62805,359.42663 -8.87194,-1.37965 -6.62806,-1.88278 -6.62805,-1.88277 -7.9365,-3.31167 -7.93651,-3.31168 -6.56349,-4.43663 -6.5635,-4.43664 -5.29083,-5.1424 -5.29083,-5.14241 -5.26193,-8 -5.26194,-8 -1.69413,-4.4469 -1.69414,-4.4469 1.05809,1.05809 1.05808,1.05808 2.79801,-0.61118 2.79801,-0.61119 5.00104,-5.5 5.00104,-5.5 0.68063,-2.16642 0.68062,-2.16642 2.96487,-1.03356 2.96488,-1.03356 1.05056,-2.80002 1.05056,-2.80002 2.44371,-2.29047 2.4437,-2.29047 0.20586,-6.20953 0.20586,-6.20953 0.54414,23 0.54414,23 3.20145,6.75853 3.20145,6.75852 5.27785,5.58055 5.27785,5.58055 8.0207,5.32751 8.0207,5.32751 10,4.85703 10,4.85702 4.25,1.64595 4.25,1.64594 V 359.91955 361 l -5.25,-0.0969 -5.25,-0.0969 z M 311,302 v -1.33333 l 0.66667,0.66666 0.66666,0.66667 -0.66666,0.66667 L 311,303.33333 Z m -1,-2.5 V 299 h 0.5 0.5 v 0.5 0.5 h -0.5 -0.5 z"
         id="path32" />
      <path
         style="fill:#93df5e"
         d="M 157.86776,376.38528 144.79021,363.5 133.8951,351.78792 123,340.07584 v -2.40504 -2.40503 l 3.98142,-2.63478 3.98143,-2.63478 0.59134,-2.35608 0.59133,-2.35608 -1.49288,-3.57296 -1.49288,-3.57297 -3.62639,-1.00129 -3.62639,-1.0013 -4.31634,-2.52954 -4.31634,-2.52954 -3.13715,-3.57302 L 107,303.93041 v -1.93002 -1.93002 l -2.02801,-1.08536 -2.02801,-1.08536 0.58703,-0.94982 L 104.11803,296 H 106.05902 108 v 2.15499 2.15499 l 1.92325,-1.74052 1.92325,-1.74052 -0.5813,-3.58211 -0.58129,-3.5821 1.58493,0.60819 1.58493,0.6082 1.19556,-1.44056 1.19556,-1.44056 1.12755,0.007 1.12756,0.007 2.17772,3.24316 2.17772,3.24317 2.73024,7 2.73024,7 7.41593,12.25402 7.41593,12.25401 -4.57389,5.3538 -4.57389,5.3538 v 2.20792 2.20793 l 0.97695,1.82546 0.97696,1.82546 8.20381,6.8588 8.20382,6.8588 6.49766,5.25 6.49766,5.25 h 0.88489 0.88489 l 8.1817,-7.75 8.1817,-7.75 12.91541,-13.5 12.91541,-13.5 0.84431,-0.33491 0.8443,-0.33491 3.07199,2.58491 3.07199,2.58491 h 1.08994 1.08994 l -0.64634,0.64634 -0.64633,0.64634 -3.90716,-2.58563 -3.90715,-2.58564 -12.83189,13.6893 -12.83189,13.68929 -6.70796,6.1789 -6.70796,6.17891 -2.50627,1.64217 -2.50626,1.64216 -2.31706,-1.20991 -2.31706,-1.20992 -6,-5.12642 -6,-5.12641 -2,-1.47876 -2,-1.47875 11.90518,12.49402 11.90519,12.49401 1.42725,0.84583 1.42726,0.84582 3.21415,-0.60298 3.21415,-0.60298 8.95341,-7.86198 8.95341,-7.86197 9.18194,-9.63087 9.18194,-9.6312 h 1.11772 1.11772 l 2.9207,1.51035 2.92069,1.51035 1.11067,2.0753 1.11066,2.07529 -0.48971,0.48972 -0.48972,0.48971 -0.66217,-2.08633 -0.66218,-2.08632 -2.87947,-1.48904 L 217.09932,353 h -0.86948 -0.86947 l -14.93019,15.03709 -14.93018,15.03708 -3.61221,2.50342 -3.6122,2.50343 -3.66514,0.59477 -3.66514,0.59477 z M 136.52693,337.53973 140,334.06667 v -1.42635 -1.42634 l -1.59024,-0.61024 -1.59024,-0.61023 -0.883,0.54572 -0.883,0.54573 -1.61306,3.39928 -1.61307,3.39928 -2.15348,0.30824 -2.15348,0.30824 -0.29825,1.56678 -0.29826,1.56678 2.24499,2.85404 2.24499,2.85405 0.81998,-3.16443 0.81999,-3.16442 z M 114.66667,292.33333 114,291.66667 V 293 v 1.33333 l 0.66667,-0.66666 L 115.33333,293 Z M 227,376.5 V 376 h 0.5 0.5 v 0.5 0.5 h -0.5 -0.5 z m 3.33333,-0.16667 0.66667,-0.66666 0.66667,0.66666 L 232.33333,377 H 231 229.66667 Z M 251,357.5 269.47973,339 h 0.5 0.5 L 252,357.5 233.52027,376 h -0.5 -0.5 z M 227,373 v -1.33333 l 0.66667,0.66666 0.66666,0.66667 -0.66666,0.66667 L 227,374.33333 Z m -0.84211,-7 v -2.5 l 0.50439,1.25 0.50439,1.25 -0.50439,1.25 -0.50439,1.25 z M 225,362 v -1.33333 l 0.66667,0.66666 0.66666,0.66667 -0.66666,0.66667 L 225,363.33333 Z m -0.73097,-21.69299 1.76903,-0.46099 1.23097,0.49804 1.23097,0.49805 -3,-0.0371 -3,-0.0371 z m 6.54347,0.01 1.3125,-0.52522 0.60417,0.60416 0.60416,0.60417 -1.91666,-0.079 -1.91667,-0.0789 z M 220.33333,339.33333 221,338.66667 221.66667,339.33333 222.33333,340 H 221 219.66667 Z m 21.11405,-3.58333 7.94739,-4.18773 6.28468,-5.87902 6.28469,-5.87902 4.6699,-6.65211 4.66991,-6.65212 0.99473,-1 0.99473,-1 -0.83568,1.5 -0.83568,1.5 -4.05809,6 -4.0581,6 -6.19324,6.20883 -6.19324,6.20882 -8.03749,4.04118 L 235.04439,340 234.2722,339.9689 233.5,339.9378 Z M 271,336.5 V 336 h 0.5 0.5 v 0.5 0.5 h -0.5 -0.5 z m 1.5,-2.5 0.61803,-1 h 0.5 0.5 l -0.61803,1 -0.61803,1 h -0.5 -0.5 z m 1.5,-2.5 V 331 h 0.5 0.5 v 0.5 0.5 h -0.5 -0.5 z m 3.11387,-5.48881 2.24184,-3.98882 0.36278,0.36279 0.36278,0.36278 -2.13941,3.62603 L 275.80245,330 h -0.46521 -0.46521 z M 152.25641,321.75 l -2.09221,-2.25 -2.16091,-6.5 -2.1609,-6.5 -0.9212,-0.95 L 144,304.6 v -3.06787 -3.06786 l 2.5,-3.67908 2.5,-3.67908 v -0.89507 -0.89507 l -7.25,-2.76027 -7.25,-2.76028 -2.785,-2.95266 -2.78501,-2.95267 0.67925,-3.69504 0.67925,-3.69505 1.05801,-0.68402 1.05801,-0.68401 0.80481,0.4974 0.80481,0.49739 0.58044,-1.51261 0.58045,-1.51262 8.16249,8.03002 8.16249,8.03002 3.71016,1.91921 3.71016,1.91922 h 1.34871 1.34871 l 1.94113,-1.42401 1.94113,-1.424 -6.63332,-6.54211 -6.63332,-6.54211 -3.11668,-4.70533 L 146,261.65711 V 258.52856 255.4 l -1.25,-1.34718 -1.25,-1.34718 1.74284,0.61305 1.74285,0.61305 2.0918,-2.21587 2.0918,-2.21587 2.47097,-4.18276 2.47097,-4.18276 2.94439,-0.6467 L 162,239.84109 v -2.72942 -2.72941 l 1.3483,-1.84391 1.34829,-1.8439 1.07477,0.66424 1.07477,0.66425 0.70347,3.23853 0.70347,3.23853 4.48083,9.41797 4.48083,9.41797 7.7312,7.7312 7.7312,7.7312 9.41143,4.57838 9.41144,4.57838 8.28124,1.74097 8.28124,1.74097 -0.29378,1.5255 -0.29379,1.5255 -6.88581,3.50598 -6.88581,3.50598 -14.70474,0.10019 -14.70474,0.10019 -1.08132,0.66829 -1.08132,0.6683 -1.57872,5.43062 -1.57873,5.43062 -0.98873,0.61107 -0.98874,0.61107 -1.03382,-2.81018 -1.03383,-2.81017 -2.7143,-6.34256 -2.7143,-6.34256 -1.81706,-0.97851 -1.81706,-0.97851 -2.23842,1.46667 -2.23843,1.46668 -1.34834,4.08549 -1.34833,4.08549 1.72333,7.31786 1.72333,7.31787 -0.70382,2.95104 -0.70382,2.95104 -1.52068,1.75 -1.52068,1.75 h -1.67069 -1.6707 z m 6.70841,-1.68426 L 160,318.13148 v -3.51605 -3.51605 l -1.40379,-0.79969 -1.4038,-0.79969 -0.46002,-2.5 -0.46003,-2.5 -0.13618,2.67054 -0.13618,2.67055 -3.03942,0.66757 -3.03942,0.66757 0.65851,2.07478 0.65851,2.07478 1.39433,3.33711 1.39433,3.3371 h 1.9514 1.95139 z M 180,300 v -1.61774 l 1.42001,-1.94113 1.42001,-1.94113 H 197.17001 211.5 l 6.18251,-2.34669 6.18252,-2.34668 1.54109,-1.7029 1.5411,-1.70289 -6.22361,-1.30611 -6.22361,-1.30611 -7.5,-2.9367 -7.5,-2.93669 -5.97046,-3.54625 -5.97045,-3.54624 -0.28351,0.83863 -0.28351,0.83863 -2.0051,3.28907 -2.0051,3.28908 -3.45697,2.03966 -3.45698,2.03967 -1.53396,3.0749 -1.53396,3.0749 v 2.25737 2.25738 l 2.1816,5.70088 2.1816,5.70087 1.3184,-1.80302 1.3184,-1.80302 z m 100,20.5 V 320 h 0.5 0.5 v 0.5 0.5 h -0.5 -0.5 z m 1,-2 V 318 h 0.5 0.5 v 0.5 0.5 h -0.5 -0.5 z m 1,-2 V 316 h 0.5 0.5 v 0.5 0.5 h -0.5 -0.5 z m 1,-2 V 314 h 0.5 0.5 v 0.5 0.5 h -0.5 -0.5 z m 1.03544,-1.63519 -0.0354,-0.63519 1.46086,-3.36481 1.46086,-3.36481 0.004,1.5 0.004,1.5 -1.42913,2.5 -1.42913,2.5 z M 273,303.5 V 303 h 0.5 0.5 v 0.5 0.5 h -0.5 -0.5 z m 14.15789,-1.5 v -2.5 l 0.50439,1.25 0.50439,1.25 -0.50439,1.25 -0.50439,1.25 z m -12.5936,-1.29313 0.68279,-1.79313 0.55979,0.5598 0.5598,0.55979 -1.24258,1.23334 -1.24258,1.23333 z M 288.232,296 v -3.5 l 0.45733,1.75 0.45732,1.75 -0.45732,1.75 -0.45733,1.75 z m -11.7091,0.5 0.71157,-2 1.87512,-6 1.87513,-6 0.14382,-2.5 0.14382,-2.5 0.42506,2.18656 0.42506,2.18656 -2.05935,6.81344 -2.05936,6.81344 -1.09621,1.5 -1.09622,1.5 z M 309,297.5 V 297 h 0.5 0.5 v 0.5 0.5 h -0.5 -0.5 z m -1,-3 V 294 h 0.5 0.5 v 0.5 0.5 h -0.5 -0.5 z m -0.92105,-4.08333 0.0789,-1.91667 0.52522,1.3125 0.52522,1.3125 -0.60416,0.60417 L 307,292.33333 Z M 289.232,286 v -3.5 l 0.45733,1.75 0.45732,1.75 -0.45732,1.75 -0.45733,1.75 z M 118,286 v -1.33333 l 0.66667,0.66666 0.66666,0.66667 -0.66666,0.66667 L 118,287.33333 Z m 188,0 v -1.33333 l 0.66667,0.66666 0.66666,0.66667 -0.66666,0.66667 L 306,287.33333 Z m -1,-3 v -1.33333 l 0.66667,0.66666 0.66666,0.66667 -0.66666,0.66667 L 305,284.33333 Z M 290.20564,272.82236 290,263.14472 l -1.06097,-7.82236 -1.06097,-7.82236 -1.94239,-6.61909 -1.94239,-6.6191 -2.90997,-6.3809 -2.90996,-6.38091 -4.58153,-6.94528 -4.58153,-6.94527 -5.2149,-5.41454 -5.2149,-5.41454 -2.04024,-0.77502 -2.04025,-0.77502 -1.29446,1.04418 -1.29446,1.04417 0.62392,2.84066 L 253.15891,203 H 249.57946 246 v 0.92857 0.92857 l 1.47496,1.32143 1.47495,1.32143 2.27505,1.71494 2.27504,1.71495 5.04038,3.89261 5.04039,3.89262 5.60242,6.39244 5.60242,6.39244 2.05595,4 2.05596,4 2.18982,5 2.18981,5 0.26676,11.5 0.26677,11.5 -0.75079,-11 -0.75079,-11 -2.22099,-5.73554 -2.22099,-5.73554 -3.85627,-5.76446 -3.85627,-5.76446 -4.42692,-4.61062 -4.42692,-4.61063 -5.93411,-4.02978 -5.93411,-4.02977 -6.96626,-3.50505 -6.96626,-3.50504 -9,-2.54185 -9,-2.54185 -7,-1.15117 -7,-1.15116 -2.37289,-0.46144 -2.3729,-0.46143 1.77036,-1.29451 1.77035,-1.29452 -0.70055,-2.79121 -0.70055,-2.79121 2.96264,0.59253 2.96263,0.59253 0.52206,-1.36046 0.52206,-1.36046 -0.54824,-2.09645 L 206.76674,181 h 1.24855 1.24856 l 3.37383,-3.57731 3.37384,-3.57731 6.6345,1.03289 6.6345,1.0329 7.35387,3.49234 7.35388,3.49234 4.25587,2.94559 4.25586,2.94558 7.23651,7.35649 7.23651,7.35649 4.56386,6 4.56385,6 4.87002,10 4.87003,10 1.52526,6 1.52526,6 1.10588,8.5 1.10587,8.5 -0.34589,9 -0.34589,9 z M 304.15789,278 v -2.5 l 0.50439,1.25 0.50439,1.25 -0.50439,1.25 -0.50439,1.25 z m -22,-3 v -2.5 l 0.50439,1.25 0.50439,1.25 -0.50439,1.25 -0.50439,1.25 z m 21.07411,-4 v -3.5 l 0.45733,1.75 0.45732,1.75 -0.45732,1.75 -0.45733,1.75 z m 40.92589,-8 v -2.5 l 0.50439,1.25 0.50439,1.25 -0.50439,1.25 -0.50439,1.25 z m -41.88553,-3 v -4.5 l 0.43337,2.25 0.43337,2.25 -0.43337,2.25 -0.43337,2.25 z m -1.11232,-8.64194 -0.16004,-4.14194 -2.06075,-10.27961 -2.06074,-10.27961 -2.08008,-6.07845 -2.08008,-6.07845 -3.77752,-7.5 -3.77753,-7.5 -2.58311,-3.5 -2.5831,-3.5 -6.74855,-6.81815 -6.74854,-6.81816 -8.00895,-5.36367 -8.00895,-5.36366 -8.74105,-4.64998 L 233,158.83641 v -0.3031 -0.3031 l 4.75,-1.5309 4.75,-1.53089 10.5,-2.25344 10.5,-2.25343 16,-0.0808 16,-0.0808 6.5,1.77677 6.5,1.77677 7.40344,3.49681 7.40345,3.49681 6.66264,6.78265 6.66265,6.78265 2.71519,6.78244 2.7152,6.78243 0.45125,4.66134 0.45125,4.66133 -1.30815,-5.5 -1.30814,-5.5 -2.15437,-4.83184 -2.15436,-4.83185 -2.5378,-3.16815 -2.53781,-3.16816 -3.73222,-3.7462 -3.73222,-3.7462 -6.67648,-3.5197 -6.67648,-3.51969 -8.18554,-2.03726 -8.18554,-2.03727 -10.35935,10.80316 -10.35936,10.80316 -0.0286,1.70031 -0.0286,1.70031 -1.75,0.99629 -1.75,0.9963 3.89043,3.80339 3.89044,3.8034 1.59976,2.5 1.59976,2.5 3.3202,4.40571 3.32019,4.40571 3.37152,7.1048 3.37151,7.10479 2.42422,7.4895 2.42422,7.48949 1.71575,9.63583 1.71575,9.63583 -0.41184,3.36417 -0.41184,3.36417 z M 344.29966,243 v -5.5 l 0.41659,2.75 0.41659,2.75 -0.41659,2.75 -0.41659,2.75 z m 0.0431,-14.5 0.007,-8 0.38409,4.27643 0.38408,4.27644 -0.39069,3.72356 -0.39068,3.72357 z M 344,213.5 V 213 h 0.5 0.5 v 0.5 0.5 h -0.5 -0.5 z m 0.079,-8.08333 0.0789,-1.91667 0.52522,1.3125 0.52522,1.3125 -0.60416,0.60417 L 344,207.33333 Z m -0.884,-4.91667 0.0371,-3 0.46099,1.76903 0.46099,1.76903 -0.49804,1.23097 -0.49805,1.23097 z"
         id="path31" />
      <path
         style="fill:#aedc33"
         d="M 186,379.5 V 379 h 0.5 0.5 v 0.5 0.5 h -0.5 -0.5 z m 41.77981,-3.20932 -0.38851,-0.79068 -0.25254,-5.35562 -0.25253,-5.35562 -1.71774,-4.62638 -1.71773,-4.62637 -3.97538,-2.25155 -3.97538,-2.25156 0.78984,-0.0164 0.78984,-0.0165 3.90231,1.99081 3.90232,1.99082 1.48052,-0.56814 1.48053,-0.56813 0.58575,-1.52643 0.58575,-1.52644 1.45954,0.56008 1.45955,0.56008 0.59104,-0.95632 L 233.11803,350 H 232.05902 231 v -1.58971 -1.5897 l 2.25,-1.87703 2.25,-1.87702 1.25,-0.0333 L 238,343 v -1 -1 l -1.25,0.25 -1.25,0.25 -0.5,0.57383 -0.5,0.57382 -5.5,-0.68303 -5.5,-0.68302 4.57258,-0.1408 4.57258,-0.1408 9.14871,-4.45277 9.14871,-4.45277 6.28164,-6.29723 6.28164,-6.29723 4.28406,-6.29287 4.28405,-6.29288 3.11955,-6.13887 3.11954,-6.13886 1.83987,-5.56826 1.83986,-5.56826 -0.47873,3.5 -0.47874,3.5 1.52258,-2 1.52259,-2 2.15489,-2.48203 2.15489,-2.48203 0.75309,-3.51797 0.7531,-3.51797 -0.55583,8.5 -0.55583,8.5 -1.28457,8 -1.28456,8 -2.55752,5.76066 -2.55752,5.76066 -5.49569,9.73934 -5.49569,9.73934 -18.80462,18.65198 -18.80463,18.65197 -2.16584,0.6387 -2.16585,0.6387 z M 192.5,374 l 0.61803,-1 h 0.5 0.5 l -0.61803,1 -0.61803,1 h -0.5 -0.5 z m 6,-6 1.80998,-2 h 0.5 0.5 l -1.80998,2 -1.80998,2 h -0.5 -0.5 z m 7,-7 3.9059,-4 h 0.5 0.5 l -3.9059,4 -3.9059,4 h -0.5 -0.5 z m 8.5,-8.5 V 352 h 0.5 0.5 v 0.5 0.5 h -0.5 -0.5 z m 7.33333,-12.16667 0.66667,-0.66666 0.66667,0.66666 L 223.33333,341 H 222 220.66667 Z M 219,339.5 V 339 h 0.5 0.5 v 0.5 0.5 h -0.5 -0.5 z m 94.48522,-34.34811 -0.5818,-0.58181 -1.8759,-4.24078 -1.8759,-4.24078 -2.06085,-8.29426 -2.06084,-8.29426 -0.99516,-7 -0.99515,-7 0.0962,-3 0.0962,-3 0.46377,1.78345 0.46376,1.78345 1.92024,-2.44118 L 308,258.18454 v -1.15129 -1.15128 l 0.86042,0.53176 0.86042,0.53177 3.44735,-3.72275 3.44736,-3.72275 4.44724,-4 4.44723,-4 2.46802,-3.5 2.46802,-3.5 2.27697,-1.82258 L 335,230.85484 v -1.8684 -1.86841 l 1.1118,-0.68713 1.11181,-0.68713 0.87288,1.37811 0.87288,1.37812 0.0153,-2.67857 0.0153,-2.67857 1.51676,-1.51676 1.51676,-1.51676 0.84809,-8.80467 0.84809,-8.80467 0.1944,16.5 0.19439,16.5 0.33121,8 0.33122,8 -0.54546,12.85326 -0.54546,12.85325 -2.2887,2.14675 -2.28871,2.14674 -1.05056,2.80002 -1.05056,2.80002 -2.96488,1.03356 -2.96487,1.03356 -0.68062,2.16642 -0.68063,2.16642 -5.00104,5.5 -5.00104,5.5 -2.82568,0.61685 -2.82568,0.61684 z M 341,224.5 V 224 h -0.5 -0.5 v 0.5 0.5 h 0.5 0.5 z M 282.232,280 v -3.5 l 0.45733,1.75 0.45732,1.75 -0.45732,1.75 -0.45733,1.75 z m 0.84695,-6.58333 0.0789,-1.91667 0.52522,1.3125 0.52522,1.3125 -0.60416,0.60417 L 283,275.33333 Z M 302.232,253 v -3.5 l 0.45733,1.75 0.45732,1.75 -0.45732,1.75 -0.45733,1.75 z M 342,197.5 V 197 h 0.5 0.5 v 0.5 0.5 h -0.5 -0.5 z"
         id="path30" />
      <path
         style="fill:#96e135"
         d="m 169.26505,386.25 -1.95652,-1.75 -10.90427,-11.47339 -10.90426,-11.4734 2,1.45813 2,1.45814 6,5.12641 6,5.12642 2.31706,1.20992 2.31706,1.20991 2.50626,-1.64216 2.50627,-1.64217 6.70796,-6.17891 6.70796,-6.1789 12.78367,-13.63793 12.78366,-13.63794 5.60343,3.37421 5.60343,3.37421 3.08162,0.45971 3.08162,0.45971 3.75,0.49114 3.75,0.49115 v -0.77046 -0.77047 h 1.5 1.5 V 342.16667 343 l -1.25,0.0333 -1.25,0.0333 -2.25,1.87702 -2.25,1.87703 v 1.5897 V 350 h 1.05902 1.05901 l -0.59104,0.95633 -0.59104,0.95632 -1.45955,-0.56008 -1.45954,-0.56008 -0.58575,1.52644 -0.58575,1.52643 -1.48053,0.56813 -1.48052,0.56814 -3.95637,-2.01839 -3.95637,-2.01839 -1.75392,0.93867 -1.75392,0.93867 -12.56384,12.8389 -12.56385,12.83891 -4.40532,3.86497 -4.40532,3.86497 -2.3278,0.88503 L 174.8698,388 h -1.82412 -1.82411 z m -40.09614,-41.7624 -2.24499,-2.85404 0.29826,-1.56678 0.29825,-1.56678 2.15348,-0.30824 2.15348,-0.30824 1.61307,-3.39928 1.61306,-3.39928 0.883,-0.54573 0.883,-0.54572 1.59024,0.61023 1.59024,0.61024 v 1.42634 1.42635 l -3.47307,3.47306 -3.47306,3.47307 -0.81999,3.16442 -0.81998,3.16443 z m 23.4636,-25.8247 -1.39433,-3.33711 -0.65851,-2.07478 -0.65851,-2.07478 3.03942,-0.66757 3.03942,-0.66757 0.13618,-2.67055 0.13618,-2.67054 0.46003,2.5 0.46002,2.5 1.4038,0.79969 1.40379,0.79969 v 3.51605 3.51605 l -1.03518,1.93426 L 157.92963,322 h -1.95139 -1.9514 z M 175.1816,299.52291 173,293.82203 v -2.25738 -2.25737 l 1.53396,-3.0749 1.53396,-3.0749 3.45698,-2.03967 3.45697,-2.03966 2.0051,-3.28908 2.0051,-3.28907 0.28351,-0.83863 0.28351,-0.83863 5.97045,3.54624 5.97046,3.54625 7.5,2.93669 7.5,2.9367 6.22361,1.30611 6.22361,1.30611 -1.5411,1.70289 -1.54109,1.7029 -6.18252,2.34668 L 211.5,294.5 h -14.32999 -14.32999 l -1.42001,1.94113 L 180,298.38226 V 300 v 1.61774 l -1.3184,1.80302 -1.3184,1.80302 z m 106.19641,-10.74954 0.54128,-1.72663 1.16212,-8.7328 1.16212,-8.7328 -0.49404,-10.04057 -0.49404,-10.04057 -2.17896,-5 -2.17897,-5 -2.05596,-4 -2.05595,-4 -5.60242,-6.39244 -5.60242,-6.39244 -5.04039,-3.89262 L 253.5,210.92989 251.22496,209.21494 248.94991,207.5 247.47496,206.17857 246,204.85714 V 203.92857 203 h 3.57946 3.57945 l -0.62391,-2.84066 -0.62392,-2.84066 1.29446,-1.04417 1.29446,-1.04418 2.04025,0.77502 2.04024,0.77502 5.2149,5.41454 5.2149,5.41454 4.59238,6.94527 4.59238,6.94528 2.52595,5.5 2.52595,5.5 2.35834,7.44198 2.35834,7.44198 1.1653,10.05802 1.1653,10.05802 -0.71923,6.68014 -0.71922,6.68013 -2.0198,2.31987 -2.01979,2.31986 -1.98974,2.5 -1.98973,2.5 z m 22.24964,-28.03344 -0.60034,-2.23993 -0.0191,-3 -0.0191,-3 -2.41585,-12.54792 -2.41585,-12.54791 -2.16319,-6.45209 -2.16318,-6.45208 -3.35513,-7.09429 -3.35513,-7.09429 -3.32019,-4.40571 -3.3202,-4.40571 -1.59976,-2.5 -1.59976,-2.5 -3.89044,-3.8034 -3.89043,-3.80339 1.75,-0.9963 1.75,-0.99629 0.0286,-1.70031 0.0286,-1.70031 10.35936,-10.80316 10.35935,-10.80316 8.18554,2.03727 8.18554,2.03726 6.67648,3.51969 6.67648,3.5197 3.73222,3.7462 3.73222,3.7462 2.53529,3.16517 2.53529,3.16517 2.37532,5.371 2.37531,5.371 1.25226,7.7627 1.25226,7.76271 -0.59814,8.4756 -0.59813,8.47561 -1.54695,1.54695 -1.54695,1.54695 -0.0153,2.67857 -0.0153,2.67857 -0.87288,-1.37812 -0.87288,-1.37811 -1.11181,0.68713 -1.1118,0.68713 v 1.86841 1.8684 l -2.27697,1.82258 -2.27697,1.82258 -2.46802,3.5 -2.46802,3.5 -4.44723,4 -4.44724,4 -3.44736,3.72275 -3.44735,3.72275 -0.86042,-0.53177 L 308,255.88197 v 1.15128 1.15129 l -1.886,2.39766 -1.886,2.39767 z M 340,224.5 V 224 h 0.5 0.5 v 0.5 0.5 h -0.5 -0.5 z"
         id="path29" />
    </g>
  </g>
</svg>
